<?xml version="1.0" encoding="UTF-8" standalone="no"?>
<!-- Created with Inkscape (http://www.inkscape.org/) -->

<svg
   xmlns:dc="http://purl.org/dc/elements/1.1/"
   xmlns:cc="http://creativecommons.org/ns#"
   xmlns:rdf="http://www.w3.org/1999/02/22-rdf-syntax-ns#"
   xmlns:svg="http://www.w3.org/2000/svg"
   xmlns="http://www.w3.org/2000/svg"
   xmlns:sodipodi="http://sodipodi.sourceforge.net/DTD/sodipodi-0.dtd"
   xmlns:inkscape="http://www.inkscape.org/namespaces/inkscape"
   width="1503.2269"
   height="710.28918"
   id="svg6828"
   version="1.1"
   inkscape:version="0.48.4 r9939"
   sodipodi:docname="New document 8">
  <defs
     id="defs6830" />
  <sodipodi:namedview
     id="base"
     pagecolor="#ffffff"
     bordercolor="#666666"
     borderopacity="1.0"
     inkscape:pageopacity="0.0"
     inkscape:pageshadow="2"
     inkscape:zoom="0.175"
     inkscape:cx="844.46666"
     inkscape:cy="472.81949"
     inkscape:document-units="px"
     inkscape:current-layer="layer1"
     showgrid="false"
     borderlayer="true"
     inkscape:showpageshadow="false"
     fit-margin-top="0"
     fit-margin-left="0"
     fit-margin-right="0"
     fit-margin-bottom="0"
     inkscape:window-width="479"
     inkscape:window-height="438"
     inkscape:window-x="718"
     inkscape:window-y="318"
     inkscape:window-maximized="0" />
  <metadata
     id="metadata6833">
    <rdf:RDF>
      <cc:Work
         rdf:about="">
        <dc:format>image/svg+xml</dc:format>
        <dc:type
           rdf:resource="http://purl.org/dc/dcmitype/StillImage" />
        <dc:title></dc:title>
      </cc:Work>
    </rdf:RDF>
  </metadata>
  <g
     inkscape:label="Layer 1"
     inkscape:groupmode="layer"
     id="layer1"
     transform="translate(-16.957989,-31.503306)">
    <path
       inkscape:connector-curvature="0"
       id="path4163"
       style="fill:#f0f0f0"
       d="m 1511.8645,633.20611 c -2.4169,-0.033 -5.6383,0.5992 -9.4374,1.9063 -3.6245,1.247 -6.9206,1.7168 -9.2188,1.3437 -3.0945,-0.5023 -4.0209,-0.1373 -7,2.75 -5.3247,5.1609 -8.0626,9.7732 -10.9062,18.3438 -3.9502,11.905 -4.1362,15.3061 -1.5,26.25 1.628,6.7588 3.4373,11.3106 6.125,15.4688 5.6093,8.679 23.6624,26.1985 29.0624,28.1874 1.723,0.6347 5.1843,-1.8407 4.375,-3.125 -0.2319,-0.3683 -2.469,-3.7167 -4.9687,-7.4374 -2.4998,-3.7206 -4.8442,-8.4458 -5.1875,-10.5 -0.3433,-2.0544 -1.2513,-6.0403 -2.0312,-8.875 -2.0226,-7.3498 -1.8023,-20.0047 0.5,-28.3126 2.2197,-8.0105 8.0693,-21.3945 12.2187,-27.9374 1.5728,-2.4801 2.875,-4.5965 2.875,-4.7188 0,-2.1736 -1.7988,-3.3019 -4.9063,-3.3438 z m -12.125,11.9688 c 1.6832,0 1.0857,3.1065 -1.9062,10 -6.0355,13.9058 -7.9065,24.6849 -6.0938,35 2.2243,12.6567 2.343,14 1.1563,14 -2.0076,0 -8.4337,-11.2553 -10.5625,-18.5 -3.0452,-10.3643 -2.6759,-19.2393 1.1875,-27.6875 2.8452,-6.2218 3.4881,-6.9045 9.125,-9.75 3.3336,-1.6828 6.528,-3.0625 7.0937,-3.0625 z M 57.018951,37.330513 c -3.6981,0.4277 -5.4459,2.9656 -5.6524,8.0587 -0.1415,3.4874 0.2219,4.2133 3.2559,6.3191 4.3603,3.0257 8.2585,2.6635 11.9511,-1.0813 2.3729,-2.4058 2.751,-3.4883 2.2329,-6.3593 -0.7627,-4.2257 -4.3957,-6.7734 -10.0674,-7.0034 -0.6081,-0.025 -1.1917,0.01 -1.7201,0.066 z m 3.0454,5.743 c 0.7236,-0.1528 1.5696,0.013 2.375,0.5635 0.8772,0.6 1.6404,1.4388 1.6788,1.8523 0.1351,1.4505 -2.693,3.4641 -4.2373,3.0308 -0.8581,-0.2408 -1.6316,-1.3451 -1.7368,-2.4747 -0.1474,-1.5833 0.7144,-2.7169 1.9203,-2.9719 z m 6.2873,610.866197 c -1.8842,-0.54 -3.9541,-0.6862 -6.0484,-0.299 -3.9005,0.7213 -6.0071,2.6882 -7.2213,6.6926 -1.3436,4.4316 -0.4223,7.1409 3.5819,10.5886 2.8863,2.4851 4.1678,3.052 6.6035,2.8838 3.7144,-0.2565 7.1165,-1.7965 8.9256,-4.0207 0.7501,-0.922 1.7156,-2.6553 2.1186,-3.864 1.7196,-5.1586 -2.3069,-10.3621 -7.9599,-11.9813 z m 233.299199,70.932 c -3.5859,-1.0006 -6.1627,0.6896 -8.2769,5.3276 -1.448,3.1759 -1.3856,3.9852 0.6287,7.0807 2.895,4.4482 6.6414,5.5848 11.4747,3.5115 3.1057,-1.3317 3.8646,-2.1913 4.4688,-5.0454 0.8894,-4.2008 -1.5126,-7.9318 -6.6776,-10.2863 -0.5538,-0.2527 -1.1053,-0.4453 -1.6175,-0.5887 z M 65.561451,660.10051 c 0.1554,0.046 0.3234,0.1081 0.4693,0.1751 2.3889,1.1132 1.8636,6.2817 -0.6535,6.4634 -2.6847,0.1935 -5.8567,-1.7402 -5.671,-3.4828 0.2303,-2.1599 3.5242,-3.8493 5.855,-3.1557 z m 234.740799,71.2388 c 0.7277,0.1318 1.4487,0.6044 1.9863,1.4186 0.5858,0.8869 0.9757,1.9518 0.8552,2.3492 -0.4227,1.3941 -3.8018,2.1907 -5.0681,1.2064 -0.7036,-0.5471 -1.003,-1.8617 -0.6737,-2.9474 0.4612,-1.5217 1.6874,-2.246 2.9003,-2.0268 z M 1268.726,87.572313 c -1.9101,0.4397 -3.7921,1.3139 -5.4371,2.6666 -3.0637,2.5195 -3.9547,5.2604 -3.0784,9.3521 0.9698,4.528097 3.0877,6.452697 8.2604,7.530797 3.7287,0.7771 5.1244,0.6527 7.1742,-0.6737 3.1259,-2.0227 5.3571,-5.0173 5.8633,-7.839297 0.2099,-1.1699 0.2156,-3.154 -0.017,-4.4066 -0.9928,-5.3463 -7.0352,-7.9499 -12.7654,-6.6299 z m 238.4757,-50.8841 c -3.622,0.8606 -5.0584,3.587 -4.6629,8.6688 0.2706,3.4799 0.717,4.1578 3.9781,5.8912 4.6867,2.4905 8.515,1.6713 11.7404,-2.4828 2.0727,-2.6689 2.3205,-3.7884 1.4675,-6.5782 -1.2556,-4.1063 -5.1637,-6.208 -10.8229,-5.7676 -0.6069,0.047 -1.1827,0.1455 -1.7003,0.268 z m -236.1845,56.6573 c 0.1583,-0.035 0.3353,-0.062 0.4954,-0.074 2.6292,-0.1825 4.6719,4.5942 2.5574,5.9718 -2.2554,1.469097 -5.967,1.312797 -6.6482,-0.3019 -0.8442,-2.0013 1.22,-5.0743 3.5953,-5.5958 z m 239.8857,-51.3135 c 0.7005,-0.237 1.5602,-0.1725 2.4248,0.2796 0.9419,0.4924 1.7986,1.2354 1.8856,1.6415 0.3051,1.4244 -2.2659,3.7574 -3.8505,3.5092 -0.8805,-0.138 -1.7789,-1.1433 -2.0164,-2.2527 -0.3331,-1.5548 0.3891,-2.7822 1.5565,-3.1776 z m -1019.79055,11.9581 c -1.9486,0.2115 -3.9206,0.8576 -5.7136,2.0069 -3.3394,2.1407 -4.5474,4.7575 -4.1596,8.924 0.4292,4.6108 2.3053,6.7717 7.3148,8.4522 3.6112,1.2113 5.0118,1.2523 7.2038,0.1768 3.3424,-1.64 5.9111,-4.3506 6.7466,-7.0933 0.3463,-1.137 0.5859,-3.1065 0.5024,-4.378 -0.3555,-5.4259 -6.0487,-8.7238 -11.8946,-8.0887 z m 242.8116,-22.4124 c -3.6981,0.4277 -5.4459,2.9656 -5.6524,8.0587 -0.1415,3.4874 0.2219,4.2133 3.2559,6.3191 4.3603,3.0257 8.2585,2.6635 11.9511,-1.0813 2.3729,-2.4058 2.751,-3.4883 2.2329,-6.3593 -0.7627,-4.2257 -4.3957,-6.7734 -10.0674,-7.0034 -0.6081,-0.025 -1.1917,0.01 -1.7201,0.066 z m -241.2171,28.4154 c 0.1613,-0.016 0.3403,-0.022 0.5008,-0.016 2.6323,0.1289 4.0977,5.1131 1.8354,6.2318 -2.4128,1.193 -6.0802,0.6 -6.5662,-1.0837 -0.6024,-2.0868 1.8098,-4.895 4.23,-5.1329 z m 244.2625,-22.6724 c 0.7236,-0.1528 1.5696,0.013 2.375,0.5635 0.8772,0.6 1.6404,1.4388 1.6788,1.8523 0.1351,1.4505 -2.693,3.4641 -4.2373,3.0308 -0.8581,-0.2408 -1.6316,-1.3451 -1.7368,-2.4747 -0.1474,-1.5833 0.7144,-2.7169 1.9203,-2.9719 z m 59.4643,682.188097 c -1.9598,0.03 -3.9832,0.4906 -5.875,1.4688 -3.5234,1.822 -4.9687,4.3155 -4.9687,8.5 0,4.6308 1.6678,6.9563 6.5,9.0938 3.4833,1.5407 4.8741,1.7114 7.1563,0.8437 3.4801,-1.3232 6.289,-3.7841 7.375,-6.4375 0.4502,-1.1 0.8713,-3.0389 0.9062,-4.3125 0.1489,-5.4356 -5.2142,-9.2469 -11.0938,-9.1563 z m 243.84385,0.1876 c -3.7219,0.083 -5.6974,2.4481 -6.375,7.5 -0.4641,3.4594 -0.1696,4.2158 2.6562,6.5937 4.0611,3.4168 7.9761,3.4175 12,0.031 2.5856,-2.1756 3.0624,-3.2184 2.8126,-6.125 -0.3678,-4.2782 -3.7491,-7.1517 -9.375,-7.9063 -0.6033,-0.081 -1.187,-0.1054 -1.7188,-0.094 z m -242.81255,5.9374 c 0.1621,-9e-4 0.3408,0.01 0.5,0.031 2.6091,0.3722 3.6062,5.4708 1.25,6.375 -2.513,0.9642 -6.1096,0.034 -6.4375,-1.6875 -0.4064,-2.1337 2.2556,-4.7063 4.6875,-4.7188 z m 245.31255,0.063 c 0.7346,-0.085 1.5617,0.1581 2.3125,0.7812 0.8179,0.6788 1.5,1.5847 1.5,2 0,1.4567 -3.0026,3.1996 -4.5,2.625 -0.8321,-0.3193 -1.5,-1.4905 -1.5,-2.625 0,-1.5901 0.9632,-2.639 2.1875,-2.7812 z m 43.1106,-685.389297 c -2.0033,0.099 -3.5128,1.0666 -5.25,2.9688 -5.3941,5.9058 -6.2583,16.175 -2.3438,27.9062 3.5908,10.7613 16.7699,30.378397 22.6562,33.718797 5.4089,3.0695 11.9299,-0.046 13.0938,-6.249997 0.3673,-1.9571 1.6013,-5.6911 2.75,-8.2813 1.1489,-2.5901 3.1142,-8.7375 4.375,-13.6875 1.4115,-5.5408 2.3341,-12.1556 2.375,-17.1875 0.06,-7.4086 -0.1885,-8.4599 -2.5625,-11.2813 -4.9805,-5.9189 -9.8303,-7.2115 -17.25,-4.5937 -3.871,1.3658 -4.4395,1.3071 -9.6563,-1 -3.6934,-1.6334 -6.1841,-2.4116 -8.1874,-2.3125 z m 3.75,8.375 c 1.8425,-0.068 3.5658,1.2241 5.3437,3.9375 2.2148,3.3806 6.8231,3.4199 10.8125,0.062 3.5925,-3.0229 5.1873,-3.1252 7.8125,-0.5 1.6012,1.6012 1.9559,3.2463 1.875,8.25 -0.055,3.4375 -0.5001,8.05 -1,10.25 -1.2032,5.2949 -7.9705,24.7374 -9.0313,25.9375 -1.3369,1.5126 -6.5465,-4.1962 -11.7812,-12.9375 -6.5821,-10.9915 -9.0625,-18.1691 -9.0625,-26.0312 0,-5.7179 0.2772,-6.6158 2.4375,-8.0313 0.8975,-0.588 1.7563,-0.9065 2.5938,-0.9375 z m 362.3297,84.507197 c 1.6082,-0.4115 3.5162,-0.8419 5.8818,-1.3438 19.0541,-4.041 31.1641,-0.5693 42.3371,12.1664 5.7515,6.5554 5.8715,6.8103 8.5618,17.3247 3.597,14.0581 3.3066,20.3228 -1.3961,29.9688 -3.9513,8.1045 -8.7763,12.905 -15.807,15.7537 -2.572,1.0421 -5.3255,2.5149 -6.1365,3.2475 -0.811,0.7326 -2.3556,5.3605 -3.4297,10.2965 -2.8853,13.2565 -6.6713,23.7847 -9.4431,26.254 -3.6895,3.2866 -7.9585,2.9063 -10.4344,-0.9429 -1.8865,-2.9327 -2.1668,-4.6526 -2.3214,-14.1151 l -0.047,-2.9557 -4.7869,1.9667 c -4.0435,1.6489 -5.25,1.7373 -7.8489,0.589 -3.385,-1.4954 -3.2457,-1.5895 -8.8986,5.438 -5.0228,6.244 -8.6916,8.7722 -11.6505,8.0452 -2.0543,-0.5046 -2.1643,-0.8221 -2.0161,-5.4838 0.087,-2.7257 0.1768,-7.503 0.1841,-10.6272 0.028,-11.8991 0.059,-14.5981 0.2306,-18.6389 0.1611,-3.7846 -0.085,-4.3547 -2.6723,-6.2837 -5.5982,-4.1741 -7.5704,-7.5586 -9.0524,-15.5864 -1.8207,-9.8639 -0.2145,-17.8002 5.3869,-26.474 6.0293,-9.3364 15.1338,-18.997 22.2743,-23.6341 4.0827,-2.6512 6.2575,-3.7373 11.0839,-4.9649 z m 1.3776,7.9052 c -8.8092,2.117 -13.4261,5.2979 -20.6631,13.4157 -6.6819,7.4952 -10.6747,14.6799 -11.7675,21.2038 -0.4376,2.6122 -0.2976,7.778 0.3286,11.4961 l 1.1516,6.7695 7.0437,4.5846 7.0439,4.5845 -1.2608,3.645 c -2.0547,5.8862 -2.8576,12.2739 -2.0839,16.5649 0.3986,2.2098 1.0219,4.1756 1.3809,4.3883 0.3591,0.2128 2.5542,-1.9663 4.862,-4.8245 5.2399,-6.4889 7.7705,-7.3034 10.1152,-3.33 1.8441,3.1249 3.3003,3.059 10.3513,-0.3907 4.2502,-2.0794 6.2155,-0.7953 7.6824,4.9374 0.665,2.5989 1.6511,4.6096 2.1772,4.4749 2.0002,-0.5117 4.8969,-13.1352 3.9082,-16.9993 -1.1003,-4.2999 3.3557,-8.0045 13.5802,-11.3454 l 8.988,-2.9449 2.2789,-4.5829 c 3.0602,-6.168 4.1466,-11.1146 4.1846,-19.0701 0.027,-5.7365 -0.3585,-7.5508 -2.8767,-13.1342 -4.4542,-9.8761 -10.2499,-16.503 -16.8417,-19.3027 -6.9907,-2.969 -13.5699,-3.2216 -25.5403,-0.9809 -1.4488,0.2716 -2.7843,0.5384 -4.0427,0.8409 z m -11.2153,26.5138 c 0.3186,-0.092 0.6335,-0.1518 0.9463,-0.2102 1.9477,-0.3566 3.791,-0.039 5.6439,0.8784 2.685,1.33 3.5531,2.5405 5.1027,7.2102 1.5668,4.7215 1.6166,6.2575 0.4243,9.6007 -1.7234,4.8341 -6.0165,8.765 -10.9802,10.035 -4.7815,1.2235 -7.1532,0.5546 -11.2723,-3.0833 -1.8476,-1.6317 -3.6959,-4.233 -4.0944,-5.7908 -1.0291,-4.0222 1.7543,-9.7071 6.8949,-14.1507 2.7218,-2.3528 5.1044,-3.8485 7.3348,-4.4896 z m 30.9699,-2.6341 c 0.8919,-0.1612 1.9288,-0.1072 3.4563,0.019 6.0647,0.5006 11.6461,6.8133 13.919,15.6959 1.3701,5.3542 1.3299,6.5611 -0.2911,9.074 -3.018,4.6786 -6.2064,6.606 -10.8403,6.5478 -4.9389,-0.062 -12.2823,-4.3978 -14.7747,-8.7029 -4.3864,-7.5775 -3.3151,-13.5346 3.5159,-19.4151 2.4256,-2.0879 3.5283,-2.9499 5.0149,-3.2185 z m -16.546,32.9098 c 2.6402,-0.4571 4.5691,1.1527 5.4758,4.7599 1.0017,3.9875 0.6636,5.3232 -1.8606,7.6049 -4.0227,3.6367 -9.3098,3.267 -12.1846,-0.8499 -1.7466,-2.5012 -1.2637,-4.2889 2.028,-7.4541 2.2313,-2.1456 4.2474,-3.454 5.9963,-3.9213 0.1828,-0.047 0.3691,-0.1089 0.5451,-0.1395 z M 366.84015,41.349713 c -2.7565,0.028 -5.7184,0.3375 -9.2187,0.9062 -8.4547,1.3737 -13.1866,4.2259 -19.375,11.6876 -6.4208,7.7419 -9.125,14.3146 -9.125,22.125 -10e-5,10.0586 3.971,14.5749 18.1562,20.6562 4.7697,2.0448 9.4947,4.640797 10.5,5.749997 1.603,1.7687 1.9052,4.4867 2.3438,22.0625 0.4408,17.6677 0.7071,20.1537 2.25,21.125 1.2744,0.8023 2.2256,0.8026 3.5,0 1.5349,-0.9666 1.8114,-3.4178 2.25,-19.9687 l 0.5,-18.875 2.5,-0.7813 c 1.375,-0.4252 5.1326,-1.488 8.375,-2.375 4.0582,-1.1102 7.2129,-2.8157 10.125,-5.499997 5.6315,-5.191 12.9148,-16.1877 14.8124,-22.375 2.0149,-6.5692 2.0197,-9.9252 0.031,-13.8125 -4.7915,-9.3673 -11.2001,-14.2677 -23.9375,-18.3125 -5.0743,-1.6114 -9.0934,-2.3587 -13.6875,-2.3125 z m 0.7813,7.5312 c 7.0053,-0.044 8.808,0.3208 14.5,3.0938 7.7901,3.7951 8.839,4.6343 12.3124,9.7812 4.28,6.3421 3.0993,14.085 -3.5624,23.3438 -5.272,7.3274 -9.421,10.9069 -14.5938,12.625 -4.3947,1.4597 -5.3958,1.4558 -10.625,0.094 -10.4759,-2.7287 -21.5833,-7.8126 -24.6562,-11.3126 -2.5337,-2.8857 -2.894,-4.0551 -2.875,-9.5 0.026,-7.4181 2.2263,-12.7719 8.0312,-19.6562 5.2935,-6.2777 10.7195,-8.4007 21.4688,-8.4688 z m -222.8438,37.875 c -0.387,0.019 -0.7976,0.068 -1.2188,0.125 -7.2516,0.9813 -8.1027,1.3197 -9.2812,3.9063 -1.7266,3.7894 -1.445,5.8981 1.125,8.3125 5.005,4.701897 11.712,3.678397 14.25,-2.1562 2.8606,-6.5761 0.9299,-10.4765 -4.875,-10.1876 z m 1050.50005,10.5313 c -2.3849,0 -6.858,4.799097 -7.7188,8.281297 -1.4076,5.694 10.1318,16.8144 15.7813,15.2187 5.5668,-1.5723 7.9577,-2.9709 9.2813,-5.4063 2.6433,-4.8636 1.9141,-8.5832 -2.4063,-12.2812 -3.6067,-3.0873 -10.6167,-5.812497 -14.9375,-5.812497 z m -515.78125,0.2813 c -5.8988,0.086 -9.8449,10.506497 -15.4063,39.218697 -1.1718,6.05 -3.2952,14.7411 -4.7187,19.3125 -1.4235,4.5714 -2.6425,10.1574 -2.6876,12.4375 -0.072,3.6539 0.254,4.2841 2.6876,5.1563 1.9076,0.6836 3.7619,0.6122 6,-0.1876 1.7814,-0.6366 5.0999,-1.4555 7.375,-1.8124 4.0794,-0.64 4.1609,-0.5852 5.375,3.0937 0.8093,2.4521 0.9778,6.0918 0.5312,10.625 -0.8314,8.4373 -0.1697,10.875 2.9062,10.875 3.911,0 4.8445,-2.4284 5.3438,-13.6563 0.2875,-6.4639 0.9091,-10.6779 1.5938,-10.9062 0.6133,-0.2046 5.0585,-0.5924 9.875,-0.875 4.8164,-0.2825 9.6539,-0.9759 10.75,-1.5625 2.9961,-1.6035 2.7542,-10.0224 -0.4376,-15.4687 -2.5539,-4.3581 -5.3254,-11.6523 -11.5937,-30.5313 -6.5903,-19.8493 -8.6828,-23.2635 -15.6875,-25.437497 -0.6556,-0.2035 -1.296,-0.2902 -1.9062,-0.2812 z m 517.90625,8.406197 c 0.8175,-0.066 2.2142,0.3144 3.6875,1.0625 4.0045,2.0334 4.6885,3.4596 2.5313,5.25 -1.2871,1.0682 -2.0202,1.0451 -4.0313,-0.031 -2.6875,-1.4383 -4.1664,-4.6772 -2.7813,-6.0624 0.1269,-0.1269 0.3213,-0.1968 0.5938,-0.2188 z m -516.62505,4.5625 c 1.2524,-0.4175 5.7141,8.6278 6.8438,13.875 0.9768,4.5371 10.0661,27.4086 11.9687,30.125 0.8395,1.1984 1.5313,3.4412 1.5313,4.9687 0,2.7022 -0.1561,2.7697 -5.75,2.875 -3.1626,0.06 -10.3739,0.2915 -16.0313,0.5 -12.0136,0.4428 -12.3957,0.1337 -9.9063,-7.9374 0.8778,-2.8455 2.2907,-8.7563 3.125,-13.1563 3.9285,-20.7157 6.5326,-30.6879 8.2188,-31.25 z m -593.187499,14.75 c -6.4409,0.071 -10.2058,5.9394 -7.125,13.3125 2.8031,6.7089 11.9122,10.0109 15.0937,5.4688 3.2589,-4.6529 1.2414,-16.2149 -3.125,-17.875 -1.7212,-0.6545 -3.3573,-0.9228 -4.8437,-0.9063 z m 914.000049,1.75 c -6.26015,0.1408 -11.61815,6.1639 -9.56255,15.3125 0.5345,2.3798 0.7598,4.6302 0.5312,5 -0.2284,0.3699 -2.1128,0.9389 -4.1874,1.2812 -11.8085,1.9489 -14.3198,4.1757 -12.3126,10.875 1.025,3.421 1.9054,4.2427 6.6563,6.3438 3.0067,1.3297 5.7204,3.0961 6.0313,3.9062 0.3107,0.8101 -0.642,4.6501 -2.125,8.5313 -4.9576,12.974 -4.535,17.3288 1.875,18.5313 5.4508,1.0225 11.0248,-1.9636 15.09375,-8.0938 1.9572,-2.9486 3.9398,-5.5867 4.4063,-5.875 0.4665,-0.2883 2.2014,0.6859 3.8437,2.1875 6.7033,6.1293 12.6781,10.25 14.9063,10.25 4.0899,0 6.3837,-3.3287 6.3437,-9.25 -0.02,-2.8875 -0.6827,-6.375 -1.4687,-7.75 -0.786,-1.375 -1.4488,-3.0734 -1.4688,-3.75 -0.02,-0.6765 2.6979,-4.256 6.0625,-7.9687 3.3646,-3.7128 6.487,-7.6705 6.9375,-8.7813 1.0508,-2.5908 1.067,-2.8078 0.1875,-4.125 -1.6623,-2.4894 -6.2317,-3.7745 -15.2187,-4.3125 l -9.5,-0.5625 -1.7188,-5.3437 c -0.9382,-2.9289 -2.9677,-7.2968 -4.5,-9.7188 -3.0004,-4.7425 -7.0564,-6.772 -10.8125,-6.6875 z m -777.50005,2.4375 c -4.2117,0.062 -5.1897,1.8249 -5.75,7.6562 -0.6423,6.6842 1.6035,10.7646 6.6563,12.125 5.6874,1.5315 10.0121,0.3821 10.7187,-2.8437 0.316,-1.4423 0.7562,-3.075 0.9687,-3.625 0.802,-2.0759 -0.4171,-9.7609 -1.75,-11.0937 -0.7639,-0.7641 -4.0745,-1.6864 -7.375,-2.0313 -1.3528,-0.1414 -2.4968,-0.2018 -3.4687,-0.1875 z m -136.624999,3.2188 c 0.3342,0.01 0.7398,0.2328 1.25,0.6562 1.9909,1.6526 1.8799,7.0507 -0.125,6.2812 -1.7348,-0.6656 -2.9799,-4.7077 -1.9687,-6.3437 0.2469,-0.3995 0.5095,-0.6043 0.8437,-0.5937 z m 139.281299,2.5624 c 0.6031,-0.011 1.3261,0.3887 2.1562,1.2188 1.6431,1.6431 1.5703,7.8125 -0.094,7.8125 -2.2293,0 -3.6874,-2.2843 -3.6874,-5.7187 -1e-4,-2.148 0.6198,-3.294 1.625,-3.3126 z m 775.71875,1.0313 c 2.0437,0 4.0904,4.0208 5.6875,11.2187 1.7834,8.0376 4.2502,10.0875 12.75,10.5938 3.6947,0.2201 7.095,0.7501 7.5625,1.1875 1.211,1.1328 -2.7727,4.8074 -6.0625,5.5937 -6.0338,1.442 -6.7284,4.3891 -2.7812,11.8126 3.2331,6.0807 3.1503,6.591 -0.5,3.0937 -1.6501,-1.5808 -3,-3.405 -3,-4.0313 0,-2.21 -4.637,-5.4687 -7.75,-5.4687 -2.5644,0 -3.7142,0.8644 -6.75,5 -2.01875,2.75 -4.11605,5 -4.65635,5 -1.2341,0 -0.2358,-3.4796 2.25,-7.8125 3.61455,-6.3002 2.47505,-8.2416 -6.0313,-10.3438 -2.9832,-0.7372 -5.6161,-1.9297 -5.8437,-2.625 -0.5603,-1.7113 5.7792,-4.2187 10.625,-4.2187 5.66685,0 6.82105,-1.8529 5.28135,-8.3437 -2.4468,-10.3143 -2.4782,-10.6563 -0.7813,-10.6563 z m 298.7187,14.875 c -0.5244,-0.025 -0.9372,0.037 -1.2187,0.1875 -2.8157,1.507 -4.8437,6.3241 -4.8437,11.4688 0,3.8847 0.5014,5.1055 3.0312,7.4687 5.5782,5.2108 11.7224,5.0826 15.0312,-0.3437 1.9159,-3.1421 2.5249,-8.9467 1.2813,-12.1876 -0.8884,-2.3149 -9.6102,-6.4172 -13.2813,-6.5937 z m -820.75005,1.3437 c -0.32,0 -0.6013,0.044 -0.8124,0.125 -0.835,0.3205 -1.5,1.4959 -1.5,2.5938 0,1.0979 -0.9897,2.5152 -2.1876,3.1562 -2.1738,1.1634 -2.1681,1.1667 0.875,3.7813 1.6769,1.4407 3.3275,3.4125 3.6563,4.375 1.0092,2.9543 5.4743,2.2001 7.4375,-1.25 0.9369,-1.6465 2.1725,-3 2.75,-3 0.5775,0 1.59,-0.5588 2.25,-1.2187 1.8758,-1.8759 1.4815,-2.5395 -2.2812,-3.7813 -1.925,-0.6353 -3.5,-1.5282 -3.5,-1.9687 0,-1.0983 -4.4473,-2.8311 -6.6876,-2.8126 z m 823.53135,7.8126 c 0.9956,-0.049 2.1144,0.3331 2.9375,1.1562 1.6446,1.6446 1.5125,3.3139 -0.4062,4.9062 -1.3831,1.1479 -1.8657,1.0038 -3.4376,-0.9374 -1.0093,-1.2465 -1.5874,-2.9206 -1.2812,-3.7188 0.3376,-0.8798 1.1919,-1.3576 2.1875,-1.4062 z m -478.81255,2.9687 c -3.2312,0 -8.0378,5.0433 -9.0312,9.4687 -1.1369,5.0641 0.312,8.1823 4.9687,10.6563 7.1532,3.8002 14.4342,1.4259 16,-5.2187 1.1894,-5.048 1.1915,-5.1242 -1,-8.7188 -2.014,-3.3033 -7.1203,-6.1875 -10.9375,-6.1875 z m -381.7812,1.9687 c -0.7465,-0.01 -1.3273,0.3472 -1.75,1.0313 -0.3399,0.55 -1.8874,1 -3.4376,1 -1.5502,0 -3.3644,0.6341 -4.0312,1.4375 -1.7493,2.1078 -2.3909,8.6102 -1.1562,11.8125 2.1869,5.6722 13.6777,9.5853 18.625,6.3437 2.1386,-1.4012 2.5099,-2.4002 2.5,-6.875 -0.01,-4.6645 -0.4605,-5.7298 -4.0938,-9.9687 -2.6618,-3.1055 -5.014,-4.7693 -6.6562,-4.7813 z m -0.5313,8.0313 c 0.7274,0.027 1.5479,0.6256 2.25,1.9375 0.5694,1.0638 1.0313,2.8638 1.0313,4 0,2.8759 -3.8304,2.7521 -4.9063,-0.1562 -1.1966,-3.2348 0.025,-5.8411 1.625,-5.7813 z m 383.7813,0 c 1.5061,0 2.0389,2.0862 0.8437,3.2813 -0.9332,0.9332 -2.3437,-0.1732 -2.3437,-1.8438 -10e-5,-0.7926 0.6749,-1.4375 1.5,-1.4375 z m -680,8.9375 c -2.9442,-0.055 -5.6456,0.5547 -6.75,1.8125 -2.3496,2.6756 -2.721,4.8954 -2.9063,16.4687 -0.094,5.8802 -0.4848,11.1692 -0.8437,11.75 -0.6037,0.9766 -4.0453,2.1375 -20.75,6.9688 -3.4327,0.9928 -6.9201,2.3425 -7.75,3.0312 -2.0212,1.6774 -1.8997,5.3244 0.25,7.8126 1.9051,2.205 11.2063,5.2187 16.1562,5.2187 1.7029,0 3.0938,0.4205 3.0938,0.9375 0,0.517 -1.9234,4.6795 -4.2813,9.25 -5.0924,9.8705 -6.7187,14.95 -6.7187,21.0625 0,5.0101 0.8377,5.75 6.625,5.75 6.2517,0 11.5454,-4.1195 16.7187,-13 1.4418,-2.475 4.188,-6.3 6.0937,-8.5 l 3.4688,-4 5.625,6.25 c 5.5885,6.2087 11.1823,10.1973 17.25,12.3125 4.7506,1.6561 8.8654,-1.5802 9.7812,-7.6875 0.6402,-4.2682 0.3838,-4.9759 -4.0312,-11.4375 -3.178,-4.6512 -4.5022,-7.4479 -4.0625,-8.6562 0.3581,-0.9841 2.9954,-3.5957 5.8437,-5.8126 2.8483,-2.2168 5.9685,-5.5918 6.9376,-7.5 0.9692,-1.9081 1.6512,-4.1455 1.5,-4.9687 -0.5058,-2.7501 -6.8271,-4.9178 -14.5313,-4.9687 -8.4328,-0.056 -8.6361,-0.2582 -9.7813,-11.1876 -0.896,-8.5521 -4.4158,-16.2462 -8.625,-18.8124 -2.1628,-1.3187 -5.3683,-2.039 -8.3124,-2.0938 z m 1.1562,5.625 c 2.0161,-0.1253 4.8448,2.0672 6.2812,5.1875 1.5883,3.45 4.0525,18.2447 4.0626,24.4063 0,5.5144 0.8647,6.0205 7,4.1874 2.4749,-0.7395 6.4124,-1.3337 8.75,-1.3437 2.741,-0.01 4.25,0.4438 4.25,1.25 -0.01,3.0359 -4.1443,7.5793 -9.375,10.3125 -3.9897,2.0848 -5.6351,3.5198 -5.625,4.9375 0,1.1 2.2229,4.8466 4.9374,8.3437 5.0299,6.48 7.0523,11.5728 5.2813,13.3438 -1.673,1.673 -8.5106,-3.5321 -12.75,-9.6875 -4.2404,-6.1569 -7.6708,-8.5 -12.3437,-8.5 -3.6054,0 -9.3392,6.0642 -15.2188,16.125 -4.9651,8.4959 -7.9062,9.9417 -7.9062,3.875 0,-3.5833 8.0999,-19.9159 11.375,-22.9375 5.314,-4.9029 2.3312,-7.1085 -10.5626,-7.8438 -5.3408,-0.3044 -9.2341,-1.0091 -9.875,-1.7812 -0.5808,-0.7 -0.6594,-1.5209 -0.1874,-1.8125 1.673,-1.0341 22.1581,-7.625 23.6874,-7.625 0.8547,0 2.4626,-0.9 3.5626,-2 1.7845,-1.7846 2,-3.3307 2,-14.375 0,-9.5254 0.3346,-12.6784 1.4374,-13.5937 0.352,-0.2921 0.7535,-0.4399 1.2188,-0.4688 z m 1191.56255,8.4688 c -1.3215,-0.015 -2.5132,0.5977 -2.9063,1.7187 -0.3373,0.9625 -1.5078,2.4668 -2.5937,3.3437 -1.9646,1.5864 -1.9638,1.6141 0.062,5.5 1.1202,2.1482 2.5101,5.1438 3.0938,6.6563 1.1877,3.0774 3.3711,3.5509 5.3124,1.1563 0.7093,-0.8749 2.2582,-2.5624 3.4376,-3.75 2.181,-2.1965 3.0795,-5.6563 1.4687,-5.6563 -0.4873,0 -1.656,-1.6875 -2.625,-3.75 -0.969,-2.0625 -2.2688,-4.0959 -2.875,-4.5 -0.7368,-0.4911 -1.5821,-0.7095 -2.375,-0.7187 z m -1044.59375,10.1874 c -0.8423,0.035 -1.8557,0.154 -3.125,0.3126 -5.1393,0.6422 -5.6638,0.9436 -6.1876,3.5624 -0.7008,3.5037 -0.6943,3.2782 0.031,6.9063 1.2425,6.2127 13.6544,9.6916 17.0937,4.7813 0.8563,-1.2225 1.5626,-4.1442 1.5626,-6.4688 -10e-5,-3.643 -0.4974,-4.5775 -3.4688,-6.8438 -2.3434,-1.7874 -3.3795,-2.355 -5.9062,-2.25 z m 280.625,10.7813 c -4.2676,0 -8.6554,4.2809 -10.4063,10.125 -1.0462,3.4918 -0.9729,4.2521 0.8125,6.6563 4.7565,6.4049 11.551,6.7179 17.8125,0.8124 4.776,-4.5043 4.6472,-7.4393 -0.5937,-13.125 -3.3653,-3.6509 -4.7944,-4.4687 -7.625,-4.4687 z m 624.46875,8.5625 c -0.8073,0.015 -1.6458,0.073 -2.5625,0.1562 -5.5701,0.5051 -6.4244,0.872 -7.7188,3.375 -4.1632,8.0507 0.7981,14.9063 10.7813,14.9063 4.2308,0 8.0251,-1.7465 10.5313,-4.8437 1.661,-2.0528 1.5627,-4.6216 -0.2813,-8.1876 -2.0173,-3.901 -5.0986,-5.5124 -10.75,-5.4062 z m -624.15635,0.4375 c 1.88,0 1.8359,2.3933 -0.062,3.9687 -1.2027,0.9983 -1.6085,0.9523 -2.0938,-0.3124 -0.7508,-1.9566 0.2639,-3.6563 2.1562,-3.6563 z m -244.6562,4.1563 c -0.2263,-0.01 -0.4585,0.01 -0.6562,0.031 -5.4117,0.6496 -9.4589,11.7175 -5.7813,15.7812 4.0652,4.4919 13.2213,3.1869 16.5937,-2.3437 2.189,-3.59 2.364,-4.9636 0.9063,-7.6875 -1.3169,-2.4605 -7.668,-5.6998 -11.0625,-5.7812 z m 509.5,11.3124 c -1.6931,0.098 -3.0711,1.0057 -4.8125,2.75 -3.9067,3.9133 -5.3245,9.491 -3.4063,13.5313 1.6523,3.4801 7.1376,6.25 12.4063,6.25 4.347,0 6.5071,-1.5847 8.2813,-6.0313 2.5614,-6.4197 0.6657,-11.1023 -5.875,-14.4374 -2.8954,-1.4765 -4.9007,-2.1604 -6.5938,-2.0626 z m 2.0938,9.7188 c 0.1145,0 0.2252,-0.023 0.3437,0 0.887,0.1708 1.7843,1.1047 1.9687,2.0625 0.3846,1.9965 -2.4612,3.4763 -3.9062,2.0313 -1.3119,-1.312 -0.1249,-4.0541 1.5938,-4.0938 z m -446,8.375 c -1.4543,-0.086 -2.3259,1.397 -3.0626,4.7188 -0.693,3.125 -1.6479,4.5324 -3.6874,5.5 -3.4267,1.6256 -3.5384,3.9685 -0.25,5.2187 1.7313,0.6583 2.5,1.7029 2.5,3.4063 -10e-5,4.6144 1.8016,7.754 4.25,7.4062 1.6825,-0.2389 2.2947,-1.0675 2.5,-3.3125 0.5114,-5.5946 1.2476,-7.3645 3.25,-8 2.3675,-0.7515 2.5923,-2.7635 0.5,-4.5 -0.8251,-0.6847 -1.5,-2.7361 -1.5,-4.5625 0,-2.2474 -0.6939,-3.81 -2.125,-4.8125 -0.9378,-0.6568 -1.714,-1.0236 -2.375,-1.0625 z m 849.37505,4.5312 c -1.9228,0.012 -2.9246,0.7538 -5.1876,3.0313 -2.6037,2.6205 -4.1822,5.9535 -7.0312,14.875 -2.0198,6.325 -3.6875,12.4 -3.6875,13.5 0,1.1 -0.647,3.2345 -1.4375,4.75 -1.4684,2.815 -4.9255,13.9253 -6.6875,21.4375 -0.5396,2.3006 -1.6179,4.6896 -2.4063,5.3438 -2.4266,2.0139 -1.6176,4.6987 2.1563,7.0312 3.2822,2.0285 4.0703,2.1067 8.5937,1.0625 5.7849,-1.3353 13.7406,-1.4763 15.625,-0.2813 1.1801,0.7484 3.0593,21.2016 3.1563,34.3126 0.015,2.0232 0.7295,4.3856 1.5937,5.25 2.0974,2.0973 6.1391,2.0196 7.2188,-0.1563 0.5026,-1.0127 0.3827,-9.1233 -0.3125,-19.25 -0.6607,-9.625 -1.0131,-18.0141 -0.7813,-18.625 0.232,-0.6109 4.0016,-1.4165 8.375,-1.7813 9.2965,-0.7752 11.9376,-1.7894 14.2188,-5.4374 1.0742,-1.7173 1.4903,-3.7297 1.125,-5.6563 -1.0286,-5.4241 -3.709,-13.9135 -5.9688,-19 -1.2217,-2.75 -2.5015,-6.0259 -2.875,-7.25 -1.6991,-5.5693 -14.4428,-28.8008 -16.7187,-30.5 -1.3965,-1.0426 -4.3817,-2.1636 -6.6563,-2.4687 -0.9293,-0.1247 -1.6715,-0.1916 -2.3124,-0.1876 z m -514.81265,8.5626 c -0.7445,0.027 -1.494,0.1576 -2.2812,0.375 -5.1036,1.4091 -7.1122,4.1289 -7.0312,9.5 0.084,5.5848 2.3229,9.1787 6.9062,11.0937 4.1809,1.7469 6.3445,1.1928 10.9062,-2.8125 4.3613,-3.8292 4.6389,-8.2339 0.8126,-12.7812 -3.1797,-3.7788 -6.086,-5.4927 -9.3126,-5.375 z m -150.0624,0.1562 c -0.4286,-9e-4 -0.7742,0.05 -1.0313,0.1875 -2.2336,1.1953 -5.3773,9.5453 -5.4063,14.3437 -0.018,3.0979 0.611,4.4201 3.2188,6.75 2.7287,2.4383 4.0853,2.9063 8.625,2.9063 4.7971,0 5.6982,-0.3583 8,-3.0937 3.7152,-4.4154 3.6472,-11.0142 -0.1562,-14.5938 -3.5233,-3.3161 -10.2501,-6.4934 -13.25,-6.5 z m -369.5,2.1875 c -4.8394,0 -9.5,4.4264 -9.5,9 -1e-4,4.9017 4.646,9 10.2187,9 4.5852,0 6.7906,-1.1461 8.625,-4.5 1.9479,-3.5614 1.2728,-6.6022 -2.25,-10.125 -2.6338,-2.6338 -4.2456,-3.375 -7.0937,-3.375 z m 1037.90625,1.0313 c 2.5239,0.068 15.7326,27.9223 19.1875,40.4687 1.5927,5.7838 1.7475,8.1739 0.5625,8.9063 -1.0925,0.6751 -37.1806,0.9131 -37.8438,0.25 -0.8782,-0.8783 1.8276,-11.9013 4.8126,-19.6563 1.583,-4.1124 2.875,-8.2317 2.875,-9.1875 0,-5.1547 7.8563,-20.8502 10.4062,-20.7812 z m -517.46885,3.9687 c 2.1264,0 3.322,3.3342 1.75,4.9063 -1.3609,1.3606 -3.3705,1.3843 -4.1874,0.062 -1.0636,-1.7207 0.5271,-4.9687 2.4374,-4.9687 z m -520.375,1.0313 c 1.2648,-0.074 2.7069,0.5993 3.4063,1.9062 0.5694,1.0638 1.0313,2.305 1.0313,2.7812 -1e-4,1.3098 -2.2263,3.2813 -3.7188,3.2813 -1.7058,0 -3.7161,-4.4086 -2.9375,-6.4375 0.367,-0.9565 1.2351,-1.4734 2.2187,-1.5312 z m 374.1563,1.6562 c 0.5484,0.023 1.1036,0.2912 1.6563,0.8438 2.1525,2.1527 2.0382,3.7624 -0.4688,6.0312 -1.9991,1.8091 -2.1593,1.8304 -3.4062,0.125 -2.0967,-2.8673 -0.1578,-7.1007 2.2187,-7 z m 197.625,14.3125 c -0.7781,0 -3.0494,1.6118 -5.0313,3.5937 l -3.5937,3.5938 2.5625,2.1562 c 1.4185,1.1807 2.737,3.2813 2.9062,4.6563 0.2088,1.6961 1.0009,2.5993 2.5,2.8125 1.7076,0.2428 2.5449,-0.4651 3.6563,-3.125 0.791,-1.8933 1.9251,-3.7504 2.5313,-4.125 0.606,-0.3746 1.125,-1.1333 1.125,-1.6875 -10e-5,-1.7494 -5.1785,-7.875 -6.6563,-7.875 z m 213.8437,6.2813 c -0.3698,0 -0.715,0.056 -1.0312,0.1562 -0.948,0.3009 -2.938,2.4375 -4.4375,4.75 -4.7084,7.2616 -3.3446,14.8862 3.2813,18.3125 5.02255,2.5972 10.60805,1.7677 15.25005,-2.2813 1.1018,-0.9611 1.75,-2.9712 1.75,-5.4062 0,-3.1525 -0.7968,-4.725 -4.2188,-8.4375 -4.1671,-4.5208 -8.00455,-7.0646 -10.59385,-7.0937 z m 1.9063,9.75 c 0.4191,-0.06 0.93695,0.1341 1.62505,0.5624 2.3613,1.47 2.7001,3.7773 0.8125,5.3438 -3.21705,2.6699 -5.97575,-1.1519 -3.56255,-4.9375 0.37,-0.5804 0.7059,-0.9085 1.125,-0.9687 z m -519.5,1.375 c -0.8012,0.083 -1.6695,0.4076 -2.9375,0.9374 -8.4985,3.5509 -5.0811,15.6037 5.7188,20.1563 3.6697,1.5469 6.1286,0.8924 8.625,-2.2813 2.5484,-3.2403 2.6072,-9.2014 0.094,-12.3437 -1.0492,-1.3117 -3.922,-3.4435 -6.375,-4.7187 -2.6206,-1.3625 -3.7896,-1.8891 -5.125,-1.75 z m -456.218699,4.3124 c -5.0368,-0.016 -6.6615,2.5403 -6.5313,9.0313 0.1031,5.1347 1.3481,6.993 6,8.9375 2.9448,1.2309 3.6242,1.215 5.8125,-0.2188 1.3669,-0.8957 3.1155,-3.0664 3.875,-4.8124 3.0328,-6.9724 1.211,-11.4547 -5.0938,-12.5313 -1.5436,-0.2636 -2.9001,-0.4026 -4.0624,-0.4063 z m 457.812399,3.375 c 0.392,0 0.8257,0.087 1.25,0.25 1.6977,0.6515 2.1688,5.6563 0.5313,5.6563 -1.2604,0 -3.5409,-4.7716 -2.6875,-5.625 0.1703,-0.1703 0.5143,-0.2764 0.9062,-0.2813 z m 184.9063,5.9376 c -2.417,-0.033 -5.6384,0.5991 -9.4375,1.9062 -3.6244,1.247 -6.9206,1.7168 -9.2188,1.3438 -3.0945,-0.5023 -4.0209,-0.1373 -7,2.75 -5.3247,5.1609 -8.0625,9.7731 -10.9062,18.3437 -3.9501,11.905 -4.1362,15.3061 -1.5,26.25 1.628,6.7588 3.4374,11.3106 6.125,15.4687 5.6094,8.679 23.6624,26.1987 29.0625,28.1876 1.723,0.6346 5.1843,-1.8408 4.375,-3.125 -0.232,-0.3683 -2.469,-3.7169 -4.9687,-7.4376 -2.4998,-3.7206 -4.8443,-8.4457 -5.1876,-10.5 -0.3433,-2.0544 -1.2512,-6.0403 -2.0312,-8.875 -2.0225,-7.3498 -1.8023,-20.0045 0.5,-28.3124 2.2198,-8.0106 8.0694,-21.3947 12.2188,-27.9376 1.5728,-2.4801 2.875,-4.5964 2.875,-4.7187 0,-2.1736 -1.7988,-3.3018 -4.9063,-3.3437 z m -12.125,11.9687 c 1.6831,0 1.0856,3.1065 -1.9063,10 -6.0355,13.9058 -7.9064,24.6849 -6.0937,35 2.2243,12.6567 2.343,14 1.1563,14 -2.0076,0 -8.4338,-11.2553 -10.5626,-18.5 -3.0452,-10.3643 -2.6758,-19.2393 1.1876,-27.6875 2.8452,-6.2218 3.4881,-6.9045 9.125,-9.75 3.3336,-1.6828 6.528,-3.0625 7.0937,-3.0625 z m 320.9375,0.094 c -1.4988,0.039 -2.8605,0.3445 -3.9688,0.9376 -2.8253,1.5121 -5.9374,8.2739 -5.9374,12.9062 -10e-5,3.5503 0.4447,4.3234 3.7812,6.5312 2.0808,1.377 5.889,2.8027 8.4688,3.1563 5.4667,0.7493 8.6667,-0.8615 11.8437,-5.9375 2.3341,-3.7294 1.9806,-8.849 -0.8125,-11.9375 -3.2255,-3.5671 -8.8785,-5.7725 -13.375,-5.6563 z m -141.5,0.2188 c -1.6472,0.047 -3.3013,0.8585 -5.2188,2.4062 -3.8187,3.0824 -4.819,5.7093 -3.75,9.9688 0.9406,3.7475 5.33,7.3125 9,7.3125 3.7898,0 5.9376,-1.4744 8,-5.5 2.2622,-4.4156 1.9095,-7.3093 -1.3124,-10.5313 -2.5091,-2.5091 -4.601,-3.7161 -6.7188,-3.6562 z m 144.5938,8.8125 c 1.4155,-0.033 2.7059,0.3703 3.125,1.0313 1.1453,1.8066 1.1113,2.0434 -0.7188,4.6562 -1.0005,1.4284 -2.4005,2.1611 -3.75,1.9688 -1.7359,-0.2475 -2.1562,-0.9598 -2.1562,-3.7813 -10e-5,-3.1169 0.2999,-3.5498 2.875,-3.8437 0.2052,-0.024 0.4227,-0.027 0.625,-0.031 z m -633.4688,7.0313 c -1.66,0 -3.6152,0.056 -6.0312,0.1562 -19.4612,0.8083 -30.3327,7.1734 -38,22.2812 -3.9471,7.7765 -4,8.0532 -4,18.9063 0,14.511 1.8341,20.5082 8.7812,28.6875 5.8369,6.8721 11.7013,10.3268 19.2188,11.3438 2.75,0.372 5.7826,1.1163 6.75,1.625 0.9673,0.5087 3.6107,4.6093 5.875,9.125 6.0813,12.1275 12.3588,21.3885 15.6562,23.0937 4.389,2.2696 8.4305,0.8428 9.875,-3.5 1.1006,-3.3088 0.9459,-5.0445 -1.25,-14.25 l -0.6875,-2.875 5.125,0.7187 c 4.3261,0.5951 5.5168,0.3817 7.75,-1.375 2.9086,-2.2878 2.7503,-2.3443 9.9687,3.0626 6.4139,4.8041 10.5949,6.3439 13.2813,4.9062 1.8651,-0.9982 1.893,-1.3331 0.5937,-5.8125 -0.7597,-2.6191 -2.0309,-7.225 -2.8124,-10.25 -2.9766,-11.5207 -3.6754,-14.1278 -4.8438,-18 -1.0942,-3.6264 -0.9971,-4.2397 1.0312,-6.75 4.3889,-5.4314 5.4606,-9.1991 4.9063,-17.3437 -0.6812,-10.0074 -4.2046,-17.298 -11.7813,-24.3126 -8.1555,-7.5504 -19.3703,-14.6527 -27.4374,-17.375 -4.6126,-1.5564 -6.9887,-2.0695 -11.9688,-2.0624 z m 0.625,8 c 9.059,-0.1327 14.3203,1.8044 23.3438,7.875 8.3313,5.6049 13.9803,11.5756 16.6562,17.625 1.0715,2.4222 2.2162,7.4614 2.5312,11.2187 l 0.5626,6.8437 -5.6876,6.1876 -5.6874,6.1874 2.125,3.2188 c 3.4495,5.1931 5.8109,11.1824 6.125,15.5312 0.1616,2.2397 0.045,4.2987 -0.25,4.5938 -0.2952,0.2952 -2.962,-1.2719 -5.9063,-3.4688 -6.6849,-4.9875 -9.3384,-5.1492 -10.625,-0.7187 -1.0119,3.4846 -2.439,3.7816 -10.125,2.1875 -4.6331,-0.961 -6.2187,0.7702 -6.2187,6.6875 0,2.6827 -0.457,4.875 -1,4.875 -2.0647,0 -8,-11.5113 -8,-15.5 0,-4.4384 -5.2353,-6.9229 -15.9688,-7.625 l -9.4375,-0.625 -3.3437,-3.875 c -4.4937,-5.2168 -6.7724,-9.7397 -8.7813,-17.4375 -1.4486,-5.5508 -1.5244,-7.404 -0.4687,-13.4375 1.867,-10.672 5.8391,-18.5287 11.5312,-22.875 6.0365,-4.6092 12.3478,-6.4848 24.5,-7.2813 1.4709,-0.096 2.8309,-0.1685 4.125,-0.1874 z m 1063.50005,5.9687 c -0.9778,0.019 -2.0416,0.075 -3.1875,0.1563 -9.091,0.6415 -18.1226,3.6231 -21.1875,6.9687 -4.6405,5.0655 -6.5783,10.8223 -6.6562,19.75 -0.064,7.2213 0.3062,9.2522 2.4687,13.5 3.442,6.7614 7.1203,9.0718 15.9063,9.9375 11.2385,1.1074 11.156,0.916 10.8437,23.0625 -0.2377,16.8595 -0.081,18.5489 1.6563,20.4687 1.0425,1.1519 2.7835,1.9743 3.875,1.8126 1.754,-0.2599 1.9986,-1.1523 2.1874,-7.7813 0.1174,-4.125 0.5449,-14.3751 0.9376,-22.7813 0.6572,-14.0693 0.8709,-15.4143 2.8437,-16.7812 9.8282,-6.8097 13.395,-9.9857 15.375,-13.6875 4.7825,-8.9413 1.9114,-19.8195 -7.1562,-27 -7.7665,-6.15 -11.0616,-7.7565 -17.9063,-7.625 z m -969.50005,5.875 c -1.1041,0 -2.1706,0.8598 -2.4688,2 -0.3282,1.2554 -1.6593,2.2381 -3.5937,2.625 -3.9512,0.7903 -3.975,2.7728 -0.031,4.4063 1.6927,0.7011 3.7793,2.3344 4.625,3.625 1.895,2.8922 4.8808,3.015 6.3438,0.2812 0.6028,-1.1263 2.1897,-2.4587 3.5312,-2.9688 1.3416,-0.5101 2.4376,-1.3027 2.4376,-1.75 -1e-4,-1.4971 -8.8765,-8.2187 -10.8438,-8.2187 z m 970.81255,0.625 c 4.281,0 5.6641,0.5422 9.0313,2.875 2.8851,1.9988 5.1026,4.6638 6.6562,8 2.788,5.987 2.8931,9.799 0.4063,14.5 -2.8775,5.4399 -5.3344,7.0514 -14.9688,9.9063 -9.1878,2.7225 -16.3729,2.8919 -20.4063,0.5 -4.9457,-2.9332 -6.1244,-16.6746 -2.1562,-25.0626 3.3393,-7.0587 9.4807,-10.4389 19.4375,-10.6874 0.7454,-0.019 1.3884,-0.031 2,-0.031 z m -1048.34375,10.4687 c -1.9754,0.1373 -3.6824,0.9017 -5.25,2.25 -2.2717,1.954 -2.8126,3.3419 -3.1563,8.25 -0.3475,4.9625 -0.015,6.4629 1.9687,9.4063 2.868,4.256 8.0015,7 13.125,7 4.9357,0 7.0676,-1.2359 10.1563,-5.7813 1.3855,-2.0388 2.5313,-5.0171 2.5313,-6.625 -10e-5,-4.1518 -4.106,-8.9693 -10.1876,-12 -3.6801,-1.8338 -6.6478,-2.6764 -9.1874,-2.5 z m 418.2812,0.9063 c -3.3437,0 -12.9136,7.3396 -14.625,11.2187 l -1.6875,3.7813 -9.1875,0 c -9.93,0 -12.526,1.0802 -13.9062,5.8125 -0.5664,1.9421 0.342,3.3429 5.6562,8.5 3.4995,3.396 7.8897,7.327 9.75,8.7188 l 3.4062,2.5312 -2.2187,6.3438 c -2.6414,7.6322 -2.1496,11.0282 2.125,14.625 2.2364,1.8818 3.7608,2.4131 5.5313,1.9687 3.6786,-0.9233 7.6598,-4.2098 10.3437,-8.5625 3.431,-5.5641 4.5186,-5.3144 15.5,3.5312 3.1039,2.5002 4.5839,2.9851 9.25,3 5.2119,0.017 5.6496,-0.1615 6.5937,-2.8124 0.998,-2.8017 0.1356,-6.1022 -4.5312,-17.4063 -1.314,-3.1827 -1.2604,-3.3362 3.25,-8 2.5292,-2.6152 4.8281,-5.425 5.125,-6.25 2.2194,-6.1671 -0.4073,-7.4698 -18.4375,-8.9687 -0.3567,-0.03 -1.8918,-3.4413 -3.4063,-7.5938 -2.6846,-7.3609 -5.2057,-10.4375 -8.5312,-10.4375 z m 713.75005,4 c -2.6623,-0.019 -3.072,0.6289 -4.5937,3.125 -2.7896,4.5755 -2.5829,7.8202 0.75,11.8125 2.4274,2.9076 3.5493,3.4175 8.3125,3.8125 5.2118,0.4322 5.6526,0.294 8.1875,-2.7187 3.525,-4.1893 3.4533,-8.1128 -0.1875,-12.1876 -2.4874,-2.7837 -3.6226,-3.2717 -8.9375,-3.6562 -1.506,-0.1089 -2.6438,-0.1813 -3.5313,-0.1875 z m -1161.71885,0.1875 c -0.904,0.065 -1.8951,0.3742 -3.3437,0.875 -5.7513,1.9883 -9.5937,9.4875 -9.5937,18.6562 -10e-5,5.5268 0.3379,6.6861 2.5312,8.7188 4.0835,3.7845 7.6502,4.8612 12.125,3.6562 4.7695,-1.2842 10.8088,-7.305 12.1562,-12.0937 2.3713,-8.4283 -0.1432,-13.9339 -8.2187,-17.9375 -2.8675,-1.4216 -4.1495,-1.9833 -5.6563,-1.875 z m 446.1876,6.0312 c 2.2773,-0.243 3.1962,1.7659 3.6562,7.3126 0.5913,7.1302 2.5494,8.6023 10.7188,8.2187 3.674,-0.1725 5.9299,0.1466 6.1874,0.875 0.4514,1.276 -4.0072,4.7707 -8.0624,6.3125 -3.1713,1.2058 -3.4227,4.0336 -0.5938,6.5938 4.7653,4.3126 8.7134,14.4687 5.625,14.4687 -1.4368,0 -11.6562,-10.6311 -11.6562,-12.125 0,-0.3975 -1.6221,-1.2555 -3.5938,-1.9063 -3.3483,-1.105 -3.7858,-1.0107 -6.5938,1.6563 -1.6535,1.5706 -3.9057,4.5907 -5,6.7187 -1.3844,2.6923 -2.3035,3.5715 -3.0312,2.8438 -0.7277,-0.7277 -0.3862,-2.1055 1.0938,-4.5 3.7898,-6.1322 2.5451,-8.5495 -7.125,-14.0625 -4.428,-2.5244 -6.75,-5.1294 -6.75,-7.5313 -10e-5,-0.602 3.5972,-1.143 8.7187,-1.3124 l 8.75,-0.2813 0.5937,-3.6875 c 0.7436,-4.5927 3.23,-8.4646 6,-9.3438 0.3834,-0.1216 0.7372,-0.2152 1.0626,-0.25 z m 718.59375,0.5313 c 1.2744,-0.031 2.7804,0.4146 3.9375,1.375 2.6305,2.1831 1.4063,4.875 -2.2187,4.875 -2.6995,0 -4.7548,-2.289 -4.25,-4.7187 0.2064,-0.9936 1.2569,-1.5003 2.5312,-1.5313 z m -1409.187549,5.4063 c -1.5427,-0.05 -2.9387,0.3762 -3.875,1.3124 -2.8201,2.8201 -2.1903,9.1535 1.25,12.5938 4.2292,4.2292 10.0694,3.572 12.0625,-1.375 1.4863,-3.6888 1.1417,-5.5457 -1.7187,-8.7188 -2.1285,-2.361 -5.1477,-3.7292 -7.7188,-3.8124 z m 771.874999,4.8437 c -6.5997,0 -9.9062,3.3004 -9.9062,9.875 -10e-5,6.8583 3.1612,10.1818 10.375,10.875 4.7459,0.456 5.2903,0.2721 8.5937,-3.0313 4.7404,-4.7403 4.6195,-7.5943 -0.5937,-13.25 -3.6638,-3.9747 -4.6369,-4.4687 -8.4688,-4.4687 z m -0.7812,8.0937 c 0.1857,0.01 0.366,0.03 0.5937,0.063 3.8299,0.5465 3.4697,4.8437 -0.4063,4.8437 -1.302,0 -1.8124,-0.7686 -1.8124,-2.5937 -10e-5,-1.8284 0.3246,-2.3776 1.625,-2.3126 z m -633.25,1.375 c -3.6176,-0.1251 -8.3643,0.7942 -9.4688,2.125 -1.8699,2.2531 -1.4675,8.1549 0.75,11.125 3.8188,5.1149 11.2016,5.4859 15.9062,0.7813 4.4457,-4.4457 2.4446,-11.0334 -4.125,-13.5313 -0.7766,-0.2952 -1.8566,-0.4582 -3.0624,-0.5 z m 131.3124,1.5 c -3.0169,-0.032 -4.7043,2.0014 -4.6874,5.9688 0.018,4.1113 0.6765,5.3214 3.6874,6.9062 4.7987,2.526 9.8292,0.8574 11.5938,-3.8437 1.0721,-2.8561 0.1611,-4.4682 -3.8125,-6.7187 -2.6935,-1.5255 -4.9711,-2.2934 -6.7813,-2.3126 z m 939.96885,4.4688 c -2.2978,-0.082 -4.4709,1.3332 -7.625,4.7188 -3.2006,3.4355 -2.8235,10.7145 0.7188,14.0937 5.5845,5.3276 13.7006,6.3618 17.7812,2.2813 3.3758,-3.376 3.3307,-8.3967 -0.125,-11.625 -1.4273,-1.3334 -3.222,-3.5963 -3.9688,-5.0313 -0.7467,-1.4351 -2.7335,-3.1822 -4.4062,-3.875 -0.8332,-0.3452 -1.6091,-0.5351 -2.375,-0.5625 z m -1180.12505,0.031 c -0.7132,0.063 -1.3949,0.294 -2.2812,0.7188 -3.6012,1.726 -5.0089,4.9082 -6.3126,14.2812 -0.6479,4.6585 -2.7847,12.0246 -5.3437,18.4063 -7.430999,18.5315 -9.459199,24.3857 -11.749999,34.125 -1.229,5.225 -3.0334,10.427 -4.0313,11.5625 -2.4208,2.7543 -2.3087,5.1118 0.3438,6.5312 2.0956,1.1216 7.8079,0.9709 24.343799,-0.625 3.3,-0.3184 6.5817,-0.1876 7.3124,0.3126 0.9078,0.6213 1.6364,5.3202 2.3126,14.8124 1.672,23.4741 1.8003,24.1608 4.5312,27.4063 1.3837,1.6443 3.4389,3 4.5625,3 1.8434,0 1.9583,-0.4148 1.3437,-4.25 -0.6956,-4.3413 -2.1899,-19.5073 -3.2187,-32.5313 -0.7414,-9.387 -0.061,-10.2187 8.2187,-10.2187 8.819,0 16.3163,-1.8162 19.0938,-4.5937 3.1421,-3.1423 2.947,-6.7657 -0.75,-13.4063 -1.6842,-3.025 -4.7781,-9.775 -6.875,-15 -2.0968,-5.225 -8.0015,-17.9947 -13.0938,-28.375 -9.0455,-18.4388 -9.3369,-18.9295 -13.5937,-20.8125 -2.3557,-1.0421 -3.6239,-1.4494 -4.8125,-1.3438 z m 1178.40625,8.5626 c 1.0602,0.06 2.5942,0.7374 4.6876,2.0312 3.559,2.1996 4.4301,5.296 1.7812,6.3125 -4.6302,1.7768 -8.4062,-0.6865 -8.4062,-5.4687 0,-2.0072 0.5745,-2.9519 1.9374,-2.875 z m -1176.50005,0.2812 c 0.2788,0.044 0.6149,0.2952 1.0626,0.75 2.1417,2.1762 18.9553,36.5417 21.8124,44.5625 1.3969,3.9211 3.9394,9.354 5.625,12.0937 3.024,4.9145 3.7783,7.7311 2.3126,8.5938 -1.4455,0.8507 -6.8246,1.6121 -15.25,2.1562 -4.675,0.302 -14.5035,1.0606 -21.8438,1.6876 -10.2606,0.8767 -13.529599,0.8816 -14.093799,-0.031 -1.0179,-1.6471 0.4459,-11.4754 2.781299,-18.6563 3.5642,-10.959 8.3677,-23.9255 10.1563,-27.4687 0.9717,-1.925 2.5145,-7.1 3.4374,-11.5 0.923,-4.4 2.1115,-9.111 2.6563,-10.4375 0.5318,-1.2949 0.8792,-1.8227 1.3437,-1.75 z m 975.62505,10.0625 c -1.4902,-0.01 -2.0624,0.8515 -2.0624,2.7813 0,1.1309 -1.6876,3.6017 -3.75,5.5 -3.6141,3.3265 -3.6833,3.5248 -1.8126,4.9062 1.0678,0.7883 2.2844,1.4375 2.7188,1.4375 0.4344,0 1.0887,1.1417 1.4375,2.5313 0.7808,3.1115 3.7675,4.9522 5.1563,3.1874 0.5318,-0.6759 1.2499,-2.4008 1.5937,-3.8437 0.3942,-1.6542 1.7253,-3.0881 3.625,-3.875 3.6269,-1.5024 3.8941,-3.6667 0.625,-5.1563 -1.3879,-0.6323 -2.6184,-2.2483 -2.9375,-3.8437 -0.3483,-1.7415 -1.3756,-2.9761 -2.7812,-3.3437 -0.7107,-0.1859 -1.3158,-0.2794 -1.8126,-0.2813 z m -596.93745,10.8125 c -0.6626,-0.025 -1.3471,0.043 -2,0.25 -2.9636,0.9406 -5.3419,6.4779 -4.9688,11.5312 0.2801,3.7935 0.8335,4.8116 3.7188,6.75 4.4202,2.9694 10.8422,3.0402 14.4687,0.1876 4.2683,-3.3575 3.6276,-7.2684 -1.8437,-11.125 -2.4705,-1.7414 -4.7551,-3.9685 -5.0626,-4.9376 -0.4948,-1.559 -2.3249,-2.5819 -4.3124,-2.6562 z m 520.21875,24.8125 c -6.2537,0 -9.4753,4.8846 -15.5625,23.5 -5.82875,17.8253 -9.54745,31.2593 -11.84385,42.9375 l -2.1562,10.9688 2.3125,1.875 c 1.6586,1.3427 3.2008,1.6941 5.375,1.25 1.6706,-0.3413 6.44165,-0.8893 10.62505,-1.2188 5.8934,-0.4642 7.8075,-0.2935 8.5,0.7812 0.4916,0.763 1.1312,9.345 1.4063,19.0626 0.275,9.7173 0.8687,18.0258 1.3124,18.4687 0.4438,0.443 2.0188,0.1429 3.5,-0.6875 l 2.6876,-1.5312 0.5,-17.4376 0.5,-17.4687 8.2187,0.3125 c 8.8135,0.3545 14.6184,-0.9482 16.2813,-3.6562 1.2037,-1.9607 0.6748,-16.5579 -0.8438,-23.1563 -0.5696,-2.475 -2.375,-7.2 -4,-10.5 -1.625,-3.3 -3.4573,-8.291 -4.0938,-11.0625 -0.6365,-2.7715 -2.7268,-7.7215 -4.625,-11 -1.8981,-3.2785 -4.6159,-8.5256 -6.0624,-11.6875 -2.8886,-6.3141 -7.1398,-9.75 -12.0313,-9.75 z m 484.4063,2.1875 c -1.1789,0.1338 -2.3422,1.0571 -3.25,2.8125 -0.8532,1.65 -2.1628,3 -2.9063,3 -0.7436,0 -1.927,0.6901 -2.625,1.5313 -1.0476,1.2621 -0.9135,1.9171 0.75,3.75 1.1085,1.2214 2.3078,3.4304 2.6563,4.9062 0.9088,3.8493 4.4892,4.7384 6.7812,1.6875 0.9821,-1.3073 2.4785,-3.05 3.3438,-3.875 0.9659,-0.9207 1.3306,-2.2723 0.9375,-3.5 -0.3523,-1.1 -0.8745,-3.35 -1.1563,-5 -0.6163,-3.6081 -2.5663,-5.5354 -4.5312,-5.3125 z m -706.50005,1.8125 c -2.527,0 -5.9991,3.0684 -7.6876,6.8125 -2.15,4.7679 -0.9607,8.3726 3.6563,11.1875 4.475,2.7284 7.9747,2.5118 11.6563,-0.7187 4.4348,-3.8916 4.0853,-6.7342 -1.5938,-12.5 -2.5918,-2.6313 -5.3038,-4.7813 -6.0312,-4.7813 z m 96.25,3.2813 c -4.3372,0.045 -7.5252,3.6039 -8.2813,10.3124 -0.4454,3.9511 -0.1692,4.6746 3.0313,7.875 2.8188,2.819 4.3292,3.5101 7.4062,3.5 3.9798,-0.01 8.2843,-2.2211 10.8125,-5.5624 2.6842,-3.5475 1.8386,-6.8714 -2.8437,-11.1876 -3.6611,-3.3746 -7.1575,-4.9682 -10.125,-4.9374 z m 126.43745,2.7187 c 2.3498,0 13.2481,19.8139 15.125,27.5 0.6717,2.75 2.2157,7.025 3.4376,9.5 1.2218,2.475 2.7536,7.4425 3.375,11.0625 1.4539,8.47 1.4209,11.4347 -0.125,12.6562 -0.7269,0.5744 -9.5964,0.99 -21.1563,1 l -19.87505,0.031 0.6563,-7.125 c 0.65825,-7.271 1.67115,-11.2535 8.78125,-34.125 4.8757,-15.6836 7.1769,-20.5 9.7812,-20.5 z m -346.62505,1 c -2.1063,0 -4.3578,4.4223 -5,9.8437 -0.5648,4.7692 -0.3773,5.283 2.5313,8 1.7102,1.5977 3.8979,3.0958 4.875,3.3438 3.4282,0.87 8.0425,-1.137 10.1563,-4.4375 2.3169,-3.6178 2.3783,-3.9108 1.4687,-6.2813 -0.752,-1.9597 -12.1614,-10.4687 -14.0313,-10.4687 z m 454.46885,3.625 c -4.6208,0.085 -9.7818,7.9412 -8.1875,13.5 1.1459,3.9957 5.3972,7.1875 9.5313,7.1875 2.328,0 3.959,-0.8684 6.0312,-3.1875 1.5647,-1.7512 2.8438,-4.3329 2.8438,-5.75 0,-2.7428 -5.8955,-10.4284 -8.8126,-11.5 -0.4587,-0.1685 -0.9282,-0.2588 -1.4062,-0.25 z m -231.81255,0.9063 c 0.2179,0.01 0.4389,0.073 0.6563,0.1562 1.4289,0.5484 1.8541,3.4585 0.6874,4.625 -1.3987,1.3988 -4.3124,0.6397 -4.3124,-1.125 0,-2.0606 1.4433,-3.7214 2.9687,-3.6562 z m -219.0313,5.625 c 0.077,0 0.1684,0.035 0.25,0.062 1.8542,0.6181 2.1411,2.7813 0.375,2.7813 -0.8707,0 -1.5624,-0.7229 -1.5624,-1.5937 0,-0.7621 0.3976,-1.2817 0.9374,-1.25 z m 586.34385,17.875 c -6.2508,0.071 -8.6446,4.9066 -7.6875,15.4687 0.4003,4.417 0.2613,7.4386 -0.3437,7.8125 -0.5442,0.3363 -5.0113,1.0983 -9.9376,1.6562 -15.1037,1.7111 -18.8988,4.0588 -15.875,9.9063 1.9112,3.6956 7.2017,6.9951 12.75,7.9375 5.5914,0.9497 5.9532,3.1307 1.9376,11.4375 -1.6559,3.4253 -3.3025,7.4217 -3.6563,8.875 -1.4735,6.0538 5.5501,12.5637 11.6563,10.8125 4.3894,-1.2588 9.6384,-5.7756 13.5624,-11.6875 1.9839,-2.9889 4.221,-5.6625 4.9376,-5.9375 0.7166,-0.275 3.4286,1.3155 6.0624,3.5312 5.3039,4.4622 14.5445,9.1101 18.0938,9.125 3.3864,0.015 7.2188,-4.2752 7.2188,-8.0937 0,-2.6009 -1.0645,-4.169 -5.6876,-8.4375 l -5.6874,-5.2188 6.3124,-5.8124 c 3.4574,-3.2011 6.639,-6.7526 7.0938,-7.875 1.1257,-2.7828 1.1338,-4.3503 0,-6.4688 -1.6936,-3.1645 -6.4843,-4.2583 -21.75,-5 -0.6721,-0.033 -1.9471,-2.5229 -2.8125,-5.5 -2.8489,-9.7998 -9.5311,-16.6073 -16.1875,-16.5312 z m -765.37505,1.3437 c -0.2178,0.011 -0.4147,0.018 -0.5938,0.062 -3.5619,0.894 -5.669,6.6235 -5.0312,13.6562 0.2801,3.0896 0.154,6.1589 -0.25,6.8126 -0.4041,0.6538 -3.813,1.6208 -7.5938,2.1562 -7.893,1.1178 -10.7537,2.6582 -13.0312,7.0625 -1.2529,2.4227 -1.3651,3.67 -0.5312,5.5 1.4285,3.1351 6.5475,6.1527 11.7812,6.9375 7.1538,1.0728 7.6345,1.9843 4.6562,8.9375 -1.4135,3.3 -2.7889,8.7357 -3.0624,12.0937 -0.453,5.5619 -0.295,6.252 1.8437,7.75 1.2913,0.9045 3.3763,1.6563 4.6563,1.6563 5.2014,0 12.303,-6.0567 16.1874,-13.8125 2.8392,-5.6687 4.4777,-6.1507 8.375,-2.4375 4.8038,4.5768 12.7472,9.25 15.75,9.25 1.4683,0 3.8322,-0.9538 5.2813,-2.0937 4.9458,-3.8903 2.5353,-11.9761 -4.75,-15.875 -3.1597,-1.6911 -3.3131,-4.0788 -0.4375,-6.625 3.2083,-2.8409 7.8438,-10.5179 7.8438,-12.9688 -10e-5,-4.2457 -5.9822,-7.5847 -14.9688,-8.375 l -6.5,-0.5625 -1.8438,-5 c -1.0161,-2.75 -2.832,-6.083 -4.0312,-7.375 -3.1483,-3.3918 -10.4828,-6.9122 -13.75,-6.75 z m 766.37505,6.625 c 2.2978,0 7.5266,6.5302 8.1875,10.2187 0.3224,1.7994 0.9147,5.2377 1.3125,7.6563 0.9643,5.8624 2.6644,6.7915 9.375,5.1875 2.9413,-0.703 6.6673,-1.0961 8.3125,-0.9062 5.8969,0.68 3.5288,4.9472 -6.2187,11.1562 -5.9099,3.7645 -5.6142,5.8228 1.7812,12.6875 3.3139,3.0761 5.7366,5.8886 5.4062,6.2187 -1.606,1.606 -7.3451,-1.7326 -12.4374,-7.2187 -4.8765,-5.2535 -6.057,-6 -9.2813,-6 -3.4597,0 -3.9704,0.451 -8.5937,7.25 -6.4136,9.4315 -8.8078,11.9594 -10.9063,11.5313 -3.2203,-0.657 -1.9023,-6.6387 3.5937,-16.2813 l 5.125,-9 -2.0937,-1.75 c -1.53,-1.2851 -3.8625,-1.75 -8.7813,-1.75 -6.188,0 -11.5735,-1.8326 -10,-3.4063 0.914,-0.914 10.8053,-2.5937 15.3126,-2.5937 2.3885,0 5.5363,-0.8967 7.5,-2.0937 l 3.375,-2.0626 -0.625,-6.1562 c -0.3473,-3.4015 -0.9124,-7.65 -1.25,-9.4375 -0.4729,-2.5027 -0.2565,-3.25 0.9062,-3.25 z m -762.21885,2.875 c 1.6206,-0.3077 3.8334,3.2153 5.6876,9.2187 3.0524,9.8834 4.4289,10.9298 13.2812,10.1876 6.6069,-0.554 6.9688,-0.4737 6.9688,1.5312 0,1.4027 -1.8499,3.491 -5.5,6.1875 -3.4279,2.5323 -5.5,4.8045 -5.5,6.0313 0,2.2782 -0.8748,2.3856 -6.125,0.8124 -4.8331,-1.4479 -5.637,-0.8235 -9.75,7.5313 -1.724,3.5016 -3.8023,6.9422 -4.625,7.625 -1.265,1.0498 -1.5,0.8041 -1.5,-1.4687 0,-3.014 1.3527,-6.0566 4.0312,-9.0313 0.9905,-1.1 2.1245,-3.2373 2.5,-4.75 0.6234,-2.5118 0.2929,-2.9438 -3.6875,-4.75 -2.3972,-1.0877 -6.5077,-1.988 -9.1563,-2 -5.4223,-0.025 -8.6874,-1.3508 -8.6874,-3.5625 -10e-5,-1.9056 4.021,-3.4375 9.0312,-3.4375 4.9547,0 11.7051,-2.6782 13.0312,-5.1563 0.7012,-1.31 0.6589,-3.7636 -0.1562,-7.9062 -0.6503,-3.3055 -0.8762,-6.3112 -0.5,-6.6875 0.2042,-0.2042 0.4247,-0.331 0.6562,-0.375 z m 344.8438,10.3437 c -2.9725,0.2891 -6.0014,3.9589 -6.5938,8.375 -0.4403,3.2835 -0.098,4.3395 2.0938,6.5313 4.2928,4.2927 12.5416,5.2106 15.0312,1.6563 2.905,-4.1476 2.026,-8.2423 -2.6562,-12.25 -2.3227,-1.9883 -5.2893,-3.8914 -6.5938,-4.2188 -0.4151,-0.1042 -0.8566,-0.135 -1.2812,-0.094 z m -483.5,14.7813 c -1.8854,0.165 -3.0733,1.3257 -3.9688,3.4687 -1.7615,4.2161 -1.818,6.6211 -0.25,10.0626 3.0454,6.6838 15.6547,7.3336 20.0313,1.0312 2.598,-3.7413 -0.6155,-8.907 -7.5937,-12.1562 -3.7326,-1.738 -6.3334,-2.5713 -8.2188,-2.4063 z m 1043.56255,7 c -2.8881,0.09 -3.3521,0.6466 -4.5313,3.4687 -3.179,7.6083 -0.9144,12.5313 5.75,12.5313 2.1342,0 4.9881,-0.7368 6.3438,-1.625 3.1973,-2.095 3.3751,-7.936 0.375,-11.75 -1.6878,-2.1458 -2.8841,-2.625 -6.5312,-2.625 -0.5207,0 -0.9937,-0.013 -1.4063,0 z m -1037.96875,3 c 0.55,0 1,0.45 1,1 0,0.55 -0.45,1 -1,1 -0.5501,0 -1,-0.45 -1,-1 0,-0.55 0.4499,-1 1,-1 z m 1039.78125,3.5 c 0.2142,0 0.4661,0.04 0.6875,0.125 1.9708,0.7581 1.9469,2.2721 -0.031,3.0313 -1.9663,0.7545 -2.8445,-0.1372 -2.0937,-2.0938 0.253,-0.6594 0.7948,-1.053 1.4375,-1.0625 z m -723.46885,10.8124 c -1.0068,-0.011 -1.7082,0.339 -2.8124,1.0625 -2.4615,1.6128 -4.4901,6.9598 -4.5,11.8125 -0.011,5.327 6.5094,9.6903 14.625,9.7812 3.1679,0.035 6.4167,-3.0583 7.3437,-7 0.4497,-1.9117 0.8502,-4.2957 0.9063,-5.3124 0.1518,-2.7436 -5.2482,-7.2978 -10.9376,-9.1876 -2.2881,-0.7601 -3.6181,-1.1453 -4.625,-1.1562 z m 3.125,7.8438 c 0.637,-0.018 1.3409,0.2448 2.0626,0.8437 1.9274,1.5998 1.9321,5.8835 0,6.625 -2.6748,1.0264 -4.5,-0.4359 -4.5,-3.625 0,-2.3693 1.0361,-3.804 2.4374,-3.8437 z m -410.375,5.8437 c -0.5861,0 -1.0624,0.8513 -1.0624,1.9063 0,2.9437 -1.0865,5.0937 -2.5626,5.0937 -2.5657,0 -2.6512,2.1659 -0.1874,4.8125 1.3664,1.4678 2.9104,4.0375 3.4374,5.6875 0.7159,2.2414 1.5694,3 3.375,3 1.865,0 2.4838,-0.5978 2.7188,-2.625 0.1675,-1.4448 1.4381,-3.7089 2.8125,-5 2.3587,-2.216 2.3898,-2.3906 0.6875,-3.5625 -3.4904,-2.4029 -4.2812,-3.4054 -4.2812,-5.3125 0,-1.8372 -2.669,-4 -4.9376,-4 z m 1159.62515,2.125 c -1.2831,0.021 -2.4635,0.651 -3.6875,1.875 -2.7729,2.7726 -2.8118,10.4974 -0.062,11.9687 3.7058,1.9833 8.728,1.2238 10.9687,-1.625 2.9131,-3.7034 2.6232,-5.6846 -1.4375,-9.25 -2.3078,-2.0263 -4.1315,-2.996 -5.7812,-2.9687 z m -850.40635,2 c -2.0033,0.099 -3.5127,1.0666 -5.25,2.9687 -5.3941,5.9058 -6.2583,16.1751 -2.3438,27.9063 3.5908,10.7613 16.77,30.3783 22.6563,33.7187 5.4089,3.0696 11.9298,-0.046 13.0937,-6.25 0.3673,-1.957 1.6013,-5.691 2.75,-8.2812 1.1489,-2.5901 3.1142,-8.7375 4.375,-13.6875 1.4115,-5.5408 2.3341,-12.1556 2.375,-17.1875 0.06,-7.4086 -0.1884,-8.4599 -2.5624,-11.2812 -4.9805,-5.919 -9.8303,-7.2116 -17.25,-4.5938 -3.871,1.3658 -4.4395,1.3071 -9.6563,-1 -3.6934,-1.6334 -6.1842,-2.4116 -8.1875,-2.3125 z m 3.75,8.375 c 1.8426,-0.068 3.5659,1.2241 5.3438,3.9375 2.2148,3.3806 6.823,3.4194 10.8124,0.062 3.5925,-3.0229 5.1874,-3.1252 7.8126,-0.5 1.6012,1.6012 1.9559,3.2463 1.875,8.25 -0.055,3.4375 -0.5001,8.05 -1,10.25 -1.2032,5.2949 -7.9705,24.7374 -9.0313,25.9375 -1.337,1.5126 -6.5466,-4.1962 -11.7813,-12.9375 -6.5821,-10.9915 -9.0624,-18.1692 -9.0624,-26.0313 0,-5.7179 0.2771,-6.6157 2.4374,-8.0312 0.8975,-0.588 1.7563,-0.9065 2.5938,-0.9375 z m 808.40625,6.7813 c -1.887,-0.014 -3.1681,1.5281 -3.7812,4.5937 -0.436,2.1802 -1.2838,3.0005 -3.625,3.4687 -3.7289,0.7458 -3.9474,3.0118 -0.5312,5.25 1.3758,0.9016 2.8659,3.0262 3.3124,4.75 0.6779,2.6162 1.2989,3.1563 3.75,3.1563 2.4667,0 3.0931,-0.566 4.0313,-3.4687 0.6143,-1.9007 1.7393,-3.6393 2.5,-3.875 0.7607,-0.2358 1.9687,-0.894 2.6563,-1.4376 1.8438,-1.4577 1.5416,-2.4832 -1.25,-4.3124 -1.5204,-0.9962 -2.5,-2.5993 -2.5,-4.0626 -10e-5,-1.5887 -0.8378,-2.788 -2.4688,-3.5312 -0.7668,-0.3494 -1.4647,-0.5266 -2.0938,-0.5312 z m -654.21875,7.0312 c -4.1949,0.062 -7.2187,3.8408 -7.2187,9.9375 0,7.4519 11.9667,12.8911 16.8437,7.6563 4.4935,-4.8232 2.0906,-12.458 -5.125,-16.3438 -1.5878,-0.8551 -3.1017,-1.2706 -4.5,-1.25 z m 482.03135,18.8125 c -1.6151,-0.053 -2.4388,0.5389 -3.9376,2.2813 -2.9212,3.3963 -3.0263,8.4079 -0.25,11.9374 1.6722,2.126 2.924,2.6563 6.4376,2.6563 3.5135,0 4.734,-0.5303 6.4062,-2.6563 4.3738,-5.5602 1.0278,-12.5154 -6.7188,-13.9687 -0.7646,-0.1435 -1.3991,-0.2322 -1.9374,-0.25 z m -260.81265,3.9687 c -3.4154,0.1987 -5.2433,2.9099 -6.5624,8.625 -1.0245,4.438 -0.9702,5.4916 0.4687,7.6876 2.1973,3.3535 6.6457,5.5731 12.625,6.2812 4.3021,0.5096 5.1513,0.255 7.4375,-2.0312 2.0859,-2.0859 2.5938,-3.5472 2.5938,-7.5626 -10e-5,-5.835 -1.2133,-7.3713 -8.4688,-10.75 -3.4272,-1.5959 -6.0445,-2.3691 -8.0938,-2.25 z m 262.43765,3.125 c 0.3549,-0.036 0.7322,0.034 1.0312,0.2188 1.3994,0.8651 1.3821,2.2515 -0.031,3.125 -1.3949,0.862 -3.1203,-1.7548 -1.9376,-2.9375 0.2397,-0.2396 0.5826,-0.3701 0.9376,-0.4063 z m -258.56265,6 c 0.4941,-0.01 1.0573,0.081 1.6876,0.2813 2.439,0.7741 2.7108,5.0098 0.375,5.9063 -2.0381,0.782 -4.375,-1.0679 -4.375,-3.4688 0,-1.7479 0.8304,-2.693 2.3124,-2.7188 z m 354.43765,1.9063 c -1.7407,-0.022 -3.4397,0.3535 -6.5,1.1563 -3.538,0.9279 -7.7594,2.6308 -9.375,3.7812 -4.5547,3.2432 -7.9777,11.0041 -8.625,19.5625 -0.5109,6.7544 -0.3381,7.6692 2.0937,11.3437 2.6212,3.961 7.4866,7.1022 13.0313,8.4376 1.5829,0.3812 4.1787,1.9911 5.7812,3.5937 l 2.9062,2.9063 -0.5937,15.3124 c -0.6541,16.532 0.042,19.9647 4.1875,20.5626 2.0039,0.289 2.1675,-0.2297 2.7188,-9 1.7913,-28.5032 1.6929,-27.7405 3.9374,-29.3126 1.1675,-0.8177 2.8585,-1.4687 3.75,-1.4687 0.8917,0 4.4128,-1.8837 7.8438,-4.1875 6.0121,-4.0371 11.2919,-10.1528 12.3438,-14.3125 0.2775,-1.0973 0.5609,-4.2213 0.625,-6.9063 0.1034,-4.3531 -0.2582,-5.2166 -3.375,-8.1562 -4.4932,-4.2376 -15.2436,-9.6069 -23.9688,-11.9688 -3.2581,-0.8819 -5.0406,-1.3219 -6.7812,-1.3437 z m -1166.90635,1.9063 c -1.9599,0.03 -3.9833,0.4905 -5.875,1.4687 -3.5234,1.822 -4.9687,4.3155 -4.9687,8.5 0,4.6308 1.6678,6.9563 6.5,9.0937 3.4833,1.5408 4.8741,1.7115 7.1562,0.8438 3.4802,-1.3232 6.289,-3.7841 7.375,-6.4375 0.4503,-1.1 0.8713,-3.0389 0.9062,-4.3125 0.1489,-5.4356 -5.2141,-9.2468 -11.0937,-9.1562 z m 243.8437,0.1874 c -3.7219,0.083 -5.6974,2.4482 -6.375,7.5 -0.4641,3.4595 -0.1696,4.2159 2.6563,6.5938 4.0611,3.4168 7.976,3.4172 12,0.031 2.5856,-2.1756 3.0624,-3.2184 2.8125,-6.125 -0.3678,-4.2782 -3.7491,-7.1516 -9.375,-7.9062 -0.6032,-0.081 -1.187,-0.1057 -1.7188,-0.094 z m 691.09385,4.4376 c -0.8023,-0.014 -1.5054,0.2021 -2.0625,0.6562 -4.0494,3.3004 -5.8516,9.5443 -4.0937,14.125 1.7492,4.5587 12.7755,6.1715 16.3124,2.375 3.0069,-3.2273 2.565,-6.8553 -1.4374,-11.5312 -3.0037,-3.5091 -6.312,-5.5848 -8.7188,-5.625 z m 233.4688,0.375 c 5.8372,-0.069 16.7526,4.6214 21.5,9.2187 3.8164,3.6958 4.1427,7.1423 1.3124,13.375 -1.9195,4.2273 -8.3469,9.5199 -13.9374,11.4687 -3.7827,1.3188 -18.3046,-0.506 -22.1563,-2.7812 -4.1671,-2.4616 -5.3758,-6.1469 -4.5937,-14.0938 1.1583,-11.7692 6.6321,-17.0545 17.875,-17.1874 z m -1167.37505,1.125 c 0.1621,-9e-4 0.3408,0.01 0.5,0.031 2.6091,0.3722 3.6062,5.4708 1.25,6.375 -2.513,0.9642 -6.1097,0.034 -6.4376,-1.6875 -0.4064,-2.1337 2.2557,-4.7063 4.6876,-4.7187 z m 245.3124,0.062 c 0.7346,-0.085 1.5618,0.1582 2.3126,0.7813 0.8179,0.6788 1.5,1.5847 1.5,2 0,1.4567 -3.0026,3.1996 -4.5,2.625 -0.8321,-0.3193 -1.5,-1.4905 -1.5,-2.625 0,-1.5901 0.9631,-2.639 2.1874,-2.7813 z" />
  </g>
</svg>
