<svg id="Layer_1" data-name="Layer 1" xmlns="http://www.w3.org/2000/svg" viewBox="0 -50 379.28 450">
  <defs>
    <style>
      .cls-1 {
        fill: #cca601;
      }

      .cls-2 {
        fill: none;
        stroke: #cca601;
        stroke-miterlimit: 10;
        stroke-width: 20px;
      }
    </style>
  </defs>
  <title>bzzt-logo</title>
  <g>
    <g>
      <path class="cls-1" d="M119.33,315.17c0,23-11,39-29.12,39a24.29,24.29,0,0,1-19.51-9.61l-1.11,7.52H53.83V248.84l17.84-2v39.85a24.39,24.39,0,0,1,20.07-10.45C109.29,276.29,119.33,290.5,119.33,315.17Zm-18.67,0c0-19.65-5.85-25.5-14.35-25.5-6.41,0-11.15,4.32-14.63,10V332.3c3.21,5.3,8.08,8.5,13.79,8.5C94.38,340.8,100.65,333.7,100.65,315.17Z"/>
      <path class="cls-1" d="M90.2,354.68A24.55,24.55,0,0,1,71,345.76l-1,6.84H53.33V248.39l18.84-2.06v38.93a24.65,24.65,0,0,1,19.57-9.47c17.85,0,28.09,14.35,28.09,39.38C119.83,339.17,108.2,354.68,90.2,354.68ZM70.37,343.35l0.72,0.91a23.7,23.7,0,0,0,19.12,9.42c17.39,0,28.62-15.12,28.62-38.52,0-24.39-9.87-38.38-27.09-38.38A23.81,23.81,0,0,0,72.08,287l-0.91,1.25V247.44l-16.84,1.84V351.59H69.15Zm15.1-2c-5.76,0-10.81-3.1-14.22-8.74l-0.07-.12V299.56l0.07-.12c4.16-6.82,9.22-10.27,15.06-10.27,10.13,0,14.85,8.26,14.85,26C101.15,336.77,92.62,341.3,85.47,341.3Zm-13.29-9.14c3.22,5.25,7.94,8.14,13.29,8.14,9.61,0,14.69-8.69,14.69-25.14,0-22.41-7.91-25-13.85-25-5.43,0-10.18,3.25-14.13,9.67v32.33Z"/>
    </g>
    <g>
      <path class="cls-1" d="M151.93,338.16H188.3l-1.81,13.93h-55V339.27l35.81-47H134.51V278.38H187.6V291.2Z"/>
      <path class="cls-1" d="M186.92,352.59h-56V339.1L131,339l35.2-46.16H134V277.88H188.1v13.49l-0.1.13-35.06,46.16h35.93Zm-55-1H186l1.68-12.93H150.92L187.1,291V278.88H135v12.93h33.26l-36.32,47.63v12.15Z"/>
    </g>
    <g>
      <path class="cls-1" d="M220.06,338.16h36.37l-1.81,13.93h-55V339.27l35.81-47H202.65V278.38h53.09V291.2Z"/>
      <path class="cls-1" d="M255.06,352.59h-56V339.1l0.1-.13,35.2-46.16H202.15V277.88h54.09v13.49l-0.1.13-35.06,46.16H257Zm-55-1h54.1l1.68-12.93H219.06L255.24,291V278.88H203.15v12.93H236.4l-36.32,47.63v12.15Z"/>
    </g>
    <g>
      <path class="cls-1" d="M299.63,354.18c-14.49-.14-22.16-8.36-22.16-24.11V291.2H265.9V278.38h11.57v-16.3L295.31,260v18.39h17.14l-1.81,12.82H295.31v38.46c0,7.25,2.37,10.17,7.8,10.17a16.54,16.54,0,0,0,8.78-2.79l6.27,11.57A32.24,32.24,0,0,1,299.63,354.18Z"/>
      <path class="cls-1" d="M299.63,354.68h0C284.8,354.54,277,346,277,330.07V291.7H265.4V277.88H277V261.63l18.84-2.21v18.46H313l-2,13.82H295.81v38c0,6.87,2.12,9.67,7.3,9.67a16.09,16.09,0,0,0,8.52-2.71l0.45-.27,6.73,12.42-0.36.26A32.67,32.67,0,0,1,299.63,354.68Zm-33.22-64H278v39.38c0,15.31,7.49,23.47,21.66,23.61a31.81,31.81,0,0,0,17.88-5.23l-5.81-10.71a16.69,16.69,0,0,1-8.59,2.59c-5.82,0-8.3-3.19-8.3-10.67v-39H310.2l1.67-11.82H294.81V260.55l-16.84,2v16.36H266.4V290.7Z"/>
    </g>
    <g>
      <path class="cls-1" d="M351,342.9a11.36,11.36,0,0,1-11.43,11.29A11.29,11.29,0,1,1,351,342.9Z"/>
      <path class="cls-1" d="M339.62,354.68A11.73,11.73,0,0,1,328,342.9a11.59,11.59,0,0,1,11.65-11.79,11.73,11.73,0,0,1,11.93,11.79A11.87,11.87,0,0,1,339.62,354.68Zm0-22.57A10.6,10.6,0,0,0,329,342.9a10.73,10.73,0,0,0,10.65,10.79,10.87,10.87,0,0,0,10.93-10.79A10.74,10.74,0,0,0,339.62,332.11Z"/>
    </g>
  </g>
  <rect class="cls-1" x="129.86" y="122" width="127.56" height="18"/>
  <rect class="cls-1" x="122.77" y="83.6" width="141.73" height="18"/>
  <rect class="cls-1" x="163.57" y="160" width="58.14" height="18"/>
  <path class="cls-1" d="M153.57,70a35,35,0,1,1,35-35A35,35,0,0,1,153.57,70Zm0-52a17,17,0,1,0,17,17A17,17,0,0,0,153.57,18Z"/>
  <path class="cls-1" d="M231.42,70a35,35,0,1,1,35-35A35,35,0,0,1,231.42,70Zm0-52a17,17,0,1,0,17,17A17,17,0,0,0,231.42,18Z"/>
  <path class="cls-1" d="M49.32,158c-13.76,0-26.48-7.21-35.83-20.3C4.79,125.57,0,109.54,0,92.6s4.79-33,13.49-45.15c9.35-13.09,22.08-20.3,35.83-20.3,13.05,0,25,10.82,36.51,33.09A214.41,214.41,0,0,1,98.21,89.86l0.88,2.74-0.88,2.74A214.41,214.41,0,0,1,85.83,125C74.31,147.22,62.37,158,49.32,158Zm0-112.9C32.34,45.15,18,66.88,18,92.6S32.34,140,49.32,140c8.87,0,23-24.46,30.84-47.45C72.32,69.61,58.19,45.15,49.32,45.15Z"/>
  <path class="cls-1" d="M330,158c-13.05,0-25-10.82-36.5-33.09a214.34,214.34,0,0,1-12.39-29.62l-0.88-2.74,0.88-2.74a214.34,214.34,0,0,1,12.39-29.62C305,38,316.91,27.15,330,27.15c13.76,0,26.48,7.21,35.83,20.3,8.7,12.18,13.49,28.21,13.49,45.15s-4.79,33-13.49,45.15C356.44,150.84,343.72,158,330,158ZM299.12,92.6c7.84,23,22,47.45,30.84,47.45,17,0,31.32-21.73,31.32-47.45S346.94,45.15,330,45.15C321.06,45.15,306.94,69.61,299.12,92.6Z"/>
</svg>
