<svg id="Layer_1" data-name="Layer 1" xmlns="http://www.w3.org/2000/svg" width="1712.99" height="695.27" viewBox="0 0 1712.99 695.27">
  <defs>
    <style>
      .cls-1 {
        fill: #cca700;
      }

      .cls-2, .cls-3, .cls-4 {
        fill: none;
        stroke: #727779;
        stroke-linecap: round;
        stroke-miterlimit: 10;
      }

      .cls-2 {
        stroke-width: 24px;
      }

      .cls-3 {
        stroke-width: 20px;
      }

      .cls-4 {
        stroke-width: 18px;
      }
    </style>
  </defs>
  <title>bzzt-infographic</title>
  <circle class="cls-1" cx="1121.62" cy="258.58" r="109.99"/>
  <path class="cls-2" d="M1377.09,289.41a119,119,0,0,1,13.36-.77c71.83,0,112.1,55.08,112.1,122.15,0,65.09-37.93,142.21-121.76,142.21-34.81,0-65.26-12.51-98.38-41.89" transform="translate(-83.97 -95.51)"/>
  <path class="cls-2" d="M1607.36,354.76c-5.59-63.11-70.33-214.54-89-247.25" transform="translate(-83.97 -95.51)"/>
  <path class="cls-2" d="M1715.54,155.64C1684,334,1662.28,627.76,1785,778.79" transform="translate(-83.97 -95.51)"/>
  <polyline class="cls-3" points="1121.62 25.2 851.53 25.2 851.53 491.95 1121.62 491.95"/>
  <path class="cls-3" d="M935.5,354.09H681.44c-278.59,0,5.24,307.64-307.64,307.64H339.58" transform="translate(-83.97 -95.51)"/>
  <path class="cls-1" d="M322.87,597.89l-42.67-42.47h0l-0.11-.1c-0.16-.15-0.32-0.3-0.49-0.44l-0.29-.22-0.36-.26-0.35-.21-0.35-.2-0.36-.18-0.37-.17-0.36-.13-0.4-.14-0.37-.09-0.42-.1-0.42-.06-0.38-.05-0.61,0h-0.21q-0.41,0-.81,0l-0.37.05-0.42.06-0.43.11-0.36.09-0.4.14-0.36.13-0.36.17-0.37.18-0.34.2-0.36.22-0.36.27-0.28.21q-0.31.26-.6,0.55h0l-0.13.15c-0.14.15-.28,0.29-0.4,0.45l-0.23.31-0.25.34c-0.08.12-.15,0.24-0.22,0.36s-0.13.22-.19,0.33-0.12.25-.18,0.38-0.11.23-.16,0.35-0.09.25-.14,0.38-0.09.25-.13,0.38-0.07.26-.1,0.38-0.07.26-.1,0.4,0,0.29-.07.44,0,0.24-.05.36,0,0.42,0,.64c0,0.06,0,.11,0,0.17v99.51c-1.66-.6-3.43-1.17-5.33-1.7-10.88-3-25.21-4.67-40.33-4.67s-29.45,1.66-40.33,4.67c-14.49,4-21.84,10.25-21.84,18.52s7.35,14.5,21.84,18.52c10.88,3,25.21,4.67,40.33,4.67s29.45-1.66,40.33-4.67c14-3.87,21.27-9.8,21.79-17.62a8.32,8.32,0,0,0,.05-0.9V581.12l28.61,28.47A8.25,8.25,0,1,0,322.87,597.89Z" transform="translate(-83.97 -95.51)"/>
  <path class="cls-4" d="M182,437.32a140.47,140.47,0,0,0,127.55,0" transform="translate(-83.97 -95.51)"/>
  <path class="cls-4" d="M174.93,398.92a156.08,156.08,0,0,0,141.72,0" transform="translate(-83.97 -95.51)"/>
  <path class="cls-4" d="M215.72,475.32a64,64,0,0,0,58.13,0" transform="translate(-83.97 -95.51)"/>
  <path class="cls-4" d="M231.71,341.31a26,26,0,0,0-52,0" transform="translate(-83.97 -95.51)"/>
  <path class="cls-4" d="M257.57,341.31a26,26,0,1,1,52,0" transform="translate(-83.97 -95.51)"/>
  <path class="cls-4" d="M126.19,414.9c-18.35,0-33.22-20.82-33.22-46.5s14.87-46.5,33.22-46.5" transform="translate(-83.97 -95.51)"/>
  <path class="cls-4" d="M357.39,414.9c18.35,0,33.22-20.82,33.22-46.5s-14.87-46.5-33.22-46.5" transform="translate(-83.97 -95.51)"/>
  <line class="cls-4" x1="42.22" y1="319.39" x2="42.22" y2="226.38"/>
  <line class="cls-4" x1="273.42" y1="319.39" x2="273.42" y2="226.38"/>
  <path class="cls-4" d="M126.19,321.89s33.22-89,118.9-89,112.31,89,112.31,89" transform="translate(-83.97 -95.51)"/>
</svg>
