<?xml version="1.0" encoding="UTF-8" standalone="no"?>
<!-- Created with Inkscape (http://www.inkscape.org/) -->

<svg
   xmlns:dc="http://purl.org/dc/elements/1.1/"
   xmlns:cc="http://creativecommons.org/ns#"
   xmlns:rdf="http://www.w3.org/1999/02/22-rdf-syntax-ns#"
   xmlns:svg="http://www.w3.org/2000/svg"
   xmlns="http://www.w3.org/2000/svg"
   xmlns:sodipodi="http://sodipodi.sourceforge.net/DTD/sodipodi-0.dtd"
   xmlns:inkscape="http://www.inkscape.org/namespaces/inkscape"
   width="1105.6556"
   height="522.19427"
   id="svg2996"
   version="1.1"
   inkscape:version="0.48.4 r9939"
   inkscape:export-filename="/home/chrism/dev/mnmmt/website/img/bzzt-logo.png"
   inkscape:export-xdpi="41.68"
   inkscape:export-ydpi="41.68"
   sodipodi:docname="bzzt-logo.svg">
  <defs
     id="defs2998" />
  <sodipodi:namedview
     id="base"
     pagecolor="#ffffff"
     bordercolor="#666666"
     borderopacity="1.0"
     inkscape:pageopacity="0.0"
     inkscape:pageshadow="2"
     inkscape:zoom="0.35"
     inkscape:cx="547.8278"
     inkscape:cy="92.525708"
     inkscape:document-units="px"
     inkscape:current-layer="layer1"
     showgrid="false"
     fit-margin-top="20"
     fit-margin-left="20"
     fit-margin-right="20"
     fit-margin-bottom="20"
     inkscape:window-width="1920"
     inkscape:window-height="1080"
     inkscape:window-x="0"
     inkscape:window-y="0"
     inkscape:window-maximized="0" />
  <metadata
     id="metadata3001">
    <rdf:RDF>
      <cc:Work
         rdf:about="">
        <dc:format>image/svg+xml</dc:format>
        <dc:type
           rdf:resource="http://purl.org/dc/dcmitype/StillImage" />
        <dc:title></dc:title>
      </cc:Work>
    </rdf:RDF>
  </metadata>
  <g
     inkscape:label="Layer 1"
     inkscape:groupmode="layer"
     id="layer1"
     transform="translate(172.8278,-102.69362)">
    <path
       style="fill:#d4aa00;fill-opacity:1"
       d="m 290.25255,122.71013 c -14.73983,-0.0672 -28.90884,7.36897 -38.625,18.09375 -23.07055,12.0759 -32.90968,38.0733 -40.93842,61.30312 -6.90256,24.89719 -11.46565,51.278 -8.84283,77.19687 4.36663,26.88515 19.51953,54.34401 45.34375,65.6875 23.09939,8.82368 48.53585,-1.3978 66.5625,-16.71875 17.91988,-15.0897 32.94016,-35.04978 40.1875,-57.4375 6.96739,-24.38242 5.68198,-50.19605 9.28125,-75.03124 -1.12068,-7.52219 -5.97815,-17.56621 -14.71875,-17.40625 -9.88876,2.62597 -11.05954,15.06046 -10.59375,23.625 0.90054,14.31633 -0.68875,28.46626 -4.15812,42.3191 -5.6912,27.00487 -19.51428,54.49145 -44.87313,67.55589 -13.60242,7.39483 -31.78867,5.86576 -42.84375,-5.46875 -17.18239,-16.63782 -20.57552,-42.42205 -19.0625,-65.34375 2.36752,-25.75861 11.76661,-50.89072 26.3125,-72.09374 14.72456,-15.44943 38.97522,-13.8278 58.09375,-8.4375 3.40954,-0.22974 8.43179,4.59075 10.78125,1.28125 8.03768,-10.79247 5.69851,-28.97657 -7.6875,-34.5625 -7.41386,-3.84459 -15.96316,-4.71607 -24.21875,-4.5625 z m 536,44.78125 c -24.08762,1.66523 -42.49668,19.29573 -61.00569,32.87368 -43.01978,38.42021 -69.90409,91.00534 -101.05681,139.06381 -11.14418,21.26052 -3.4972,46.02332 3.99799,67.00229 15.47144,42.51031 36.7684,84.89126 72.25201,114.31021 19.9406,19.46395 39.13758,40.90752 64.73565,52.95223 21.55124,11.03789 45.1832,18.74602 69.4518,19.42277 23.8285,-4.27597 40.3242,-29.27925 37.9784,-52.9687 1.0748,-104.37243 -5.4074,-209.85365 -31.9039,-310.99435 -5.038,-21.74441 -14.565,-44.8883 -34.6057,-56.69319 -5.98577,-3.33045 -12.91933,-5.19809 -19.84375,-4.96875 z m -880.406252,21.4375 c -16.734739,1.97615 -36.095739,1.78559 -48.787618,14.6229 -24.2648,21.44799 -35.02414,53.78396 -37.87489,85.29572 -11.30058,73.53814 -16.01944,148.77728 -8.02499,222.89387 4.52583,30.0727 22.08045,60.47496 51.566193,71.90036 18.618782,6.73158 38.346366,-0.99158 54.517977,-10.37015 22.86635,-13.54333 43.74220963,-31.08649 59.10333,-53.03021 8.25303,-12.11776 18.67723,-22.91634 25,-36.1875 4.97694,-7.76252 9.0776,-16.29284 10,-25.625 4.39856,-21.08256 28.70715,-29.98203 34.4375,-50.53125 4.18977,-15.50189 -8.94555,-28.15723 -16.53125,-40.1875 -11.6688,-19.06995 -13.27899,-42.48479 -24.42809,-61.87249 -18.54942,-38.9383 -40.7517404,-77.10061 -71.60316,-107.565 -7.26556,-7.34159 -17.23063,-9.84773 -27.375002,-9.34375 z m 879.812502,12.125 c 15.79078,0.35333 25.4452,16.22309 28.3825,30.1449 13.4611,47.63574 14.5187,97.53341 22.7593,146.14971 4.1395,32.38777 9.8677,64.74211 10.6707,97.39288 -4.1815,24.46824 5.5169,51.51766 -7.4375,74.28125 -10.7483,13.22018 -30.562,11.98176 -45.21875,6.875 -25.14895,-9.39208 -46.57229,-26.61569 -66.22436,-44.56458 -16.61125,-17.3731 -29.64066,-37.96327 -44.84437,-56.56289 -19.18765,-26.94307 -33.57594,-58.15448 -37.21252,-91.27878 12.69648,-41.61325 41.03123,-76.00774 65.39655,-111.42274 19.7094,-21.36203 41.65099,-43.64211 70.79095,-50.88975 0.98073,-0.0119 1.96147,-0.037 2.9375,-0.125 z m -335.21875,14.09375 c -16.5808,-0.92028 -33.60595,7.56644 -40.375,23.15624 -9.23349,16.97767 -14.5364,36.07478 -16.10078,55.24846 1.00488,24.48197 22.07225,48.17317 47.56953,47.00154 15.45358,0.15119 32.80785,-2.1505 44.34375,-13.21875 11.19341,-12.17783 11.0446,-30.07416 18.09375,-44.1875 4.10494,-4.17369 7.71837,-9.22379 7.46875,-15.25 0.59619,-1.21641 0.61714,-5.47083 -1.25,-3.03125 -0.85419,3.33355 -5.86655,4.11183 -6.0625,0.125 -1.82375,-7.79683 -4.71607,-18.10991 -13.65625,-19.84375 -2.72342,2.22222 -7.9947,0.88766 -6.625,-3.28125 -1.54781,-16.08688 -17.91137,-27.37467 -33.40625,-26.71874 z m -553.312502,3.71875 c 22.811132,2.54594 38.821332,22.10108 48.777632,41.13523 4.9184596,11.17549 11.1025496,21.7934 19.6121696,30.57069 14.7023004,21.64245 23.3311404,46.90578 30.7352004,71.82532 7.80429,33.42385 3.19654,69.8868 -14.625,99.15625 -17.2833804,34.22745 -41.685,67.70177 -78.156252,82.71875 -7.671684,3.04136 -15.793097,4.99358 -24.0625,5.3125 -4.958947,-6.92294 -15.317755,-1.31716 -21.281248,-6.875 -17.04306,-9.93922 -21.24181,-31.47283 -23.21056,-49.64158 -6.43078,-53.03134 -3.53762,-106.82463 3.14644,-159.66199 5.04096,-29.10814 10.0034,-58.41039 18.87662,-86.57143 6.603669,-14.34913 21.201339,-24.18998 36.374998,-27.62499 1.260127,-0.217 2.532211,-0.30772 3.8125,-0.34375 z m 555.312502,29.96874 c 9.58822,1.13926 19.59258,8.97942 28.97038,2.70401 1.33825,1.07853 -1.26823,7.1328 0.12337,10.38974 4.21228,18.97892 -7.66292,41.03284 -26.59375,46.5625 -17.47535,5.7278 -35.37442,-12.72499 -31.5,-30 2.76624,-14.29053 13.1534,-29.22326 29,-29.65625 z M 287.3463,378.92887 c -37.45613,0.17786 -74.99006,2.25044 -112.21875,5.59375 -7.5273,-3.52883 -16.34801,-6.17335 -24.28125,-2.21875 -10.32951,4.09787 -17.25238,17.37662 -11.09375,27.46875 4.63348,8.87732 15.70784,11.39507 24.71617,9.11719 20.12501,-1.34216 40.32907,-0.60802 60.4044,0.50104 52.99733,-2.84248 105.68651,-14.06733 158.94047,-9.90374 67.82406,1.72253 135.63213,5.40032 203.40771,7.56676 10.64053,4.67538 27.20063,0.51487 29.1875,-12.46875 1.57541,-13.51345 -12.96974,-24.09859 -25.59365,-21.73311 -101.15519,-1.49207 -202.29067,-4.63364 -303.46885,-3.92314 z m 261.96875,84.65625 c -50.53414,2.33152 -101.25908,2.21327 -151.71875,6.53125 -48.88231,-1.69685 -98.21691,-4.88015 -146.75,2.625 -10.66966,1.74968 -21.83489,2.506 -32.15625,5.21875 -11.67772,8.41007 -29.74879,1.11113 -39.1875,13.4375 -5.64409,8.33659 -2.66616,22.72422 7.09375,26.46875 12.65795,2.39906 24.40062,-5.47966 37.10407,-6.03861 34.63238,-4.87215 69.85918,-1.48183 104.67718,-4.64889 56.78224,-2.58082 113.67775,-0.64938 170.4375,-3.78125 12.76927,-0.86401 25.17138,2.29894 37.8125,2.84375 13.47622,-0.36311 28.52168,-6.72843 34.09375,-19.6875 2.20702,-12.09674 -9.59185,-23.54245 -21.40625,-22.96875 z m -81.71875,81.1875 c -46.86849,6.97648 -94.20118,11.14509 -140.78125,19.84375 -10.04372,2.74926 -22.4987,7.13954 -26.125,18 -0.82322,10.92433 9.88028,18.9956 19.15625,22.125 10.07052,1.05274 19.5414,-3.89906 29.60136,-4.29427 35.94051,-5.98245 71.70204,-14.09359 107.99239,-17.17448 8.19993,-0.32509 16.13554,-2.80895 24.40625,-2.71875 8.82358,-0.67326 20.24718,-7.0824 18.4375,-17.34375 -2.51934,-10.13691 -12.82649,-15.86838 -21.78125,-19.53125 -3.61359,-0.6452 -7.29353,0.86534 -10.90625,1.09375 z"
       id="path3012"
       inkscape:connector-curvature="0" />
  </g>
</svg>
