<?xml version="1.0" encoding="UTF-8" standalone="no"?>
<!-- Created with Inkscape (http://www.inkscape.org/) -->

<svg
   xmlns:dc="http://purl.org/dc/elements/1.1/"
   xmlns:cc="http://creativecommons.org/ns#"
   xmlns:rdf="http://www.w3.org/1999/02/22-rdf-syntax-ns#"
   xmlns:svg="http://www.w3.org/2000/svg"
   xmlns="http://www.w3.org/2000/svg"
   xmlns:sodipodi="http://sodipodi.sourceforge.net/DTD/sodipodi-0.dtd"
   xmlns:inkscape="http://www.inkscape.org/namespaces/inkscape"
   width="1097.3894"
   height="782.1626"
   id="svg2"
   version="1.1"
   inkscape:version="0.48.4 r9939"
   sodipodi:docname="logo.svg">
  <defs
     id="defs4" />
  <sodipodi:namedview
     id="base"
     pagecolor="#ffffff"
     bordercolor="#666666"
     borderopacity="1.0"
     inkscape:pageopacity="0.0"
     inkscape:pageshadow="2"
     inkscape:zoom="0.7"
     inkscape:cx="266.68393"
     inkscape:cy="497.76305"
     inkscape:document-units="px"
     inkscape:current-layer="layer1"
     showgrid="false"
     fit-margin-top="20"
     fit-margin-left="20"
     fit-margin-right="20"
     fit-margin-bottom="20"
     borderlayer="true"
     inkscape:showpageshadow="false"
     inkscape:window-width="1920"
     inkscape:window-height="1080"
     inkscape:window-x="0"
     inkscape:window-y="0"
     inkscape:window-maximized="0" />
  <metadata
     id="metadata7">
    <rdf:RDF>
      <cc:Work
         rdf:about="">
        <dc:format>image/svg+xml</dc:format>
        <dc:type
           rdf:resource="http://purl.org/dc/dcmitype/StillImage" />
        <dc:title></dc:title>
      </cc:Work>
    </rdf:RDF>
  </metadata>
  <g
     inkscape:label="Layer 1"
     inkscape:groupmode="layer"
     id="layer1"
     transform="translate(135.16704,-27.106101)">
    <path
       style="fill:#d4aa00;fill-opacity:1"
       d="m 354.57146,521.83773 c -48.57445,-26.64479 23.08548,-38.02883 46.51884,-39.30578 36.78822,-4.20185 73.3765,-10.03408 109.87456,-14.75732 31.43574,14.74076 22.00856,31.00879 -8.89342,29.8295 -20.38323,3.20861 -45.84448,4.67315 -67.81138,10.61895 -26.51299,3.84659 -54.26256,8.97574 -79.6886,13.61465 z m 117.72915,-20.7226 c -3.68146,-1.13433 -1.83714,1.74152 0,0 z m 429.30493,8.8138 c -42.98534,-6.31635 -85.46365,-26.75675 -112.79557,-60.95178 -21.95989,-18.95142 -43.65291,-38.96924 -56.41043,-65.33412 -13.00188,-21.41881 -22.89163,-44.85116 -29.7642,-67.9632 -7.89587,-22.00363 -11.2855,-43.95762 5.3432,-63.88177 20.91131,-34.31757 41.50797,-70.11134 67.5929,-100.66081 17.07231,-23.20038 40.72252,-40.45415 65.824,-54.550175 45.01577,-20.497824 66.2989,31.098515 71.8957,66.604755 25.49711,101.15571 30.36584,206.18769 28.60911,310.64629 -2.74986,16.75539 -22.06677,38.42848 -40.29471,36.09081 z m -1.5336,-27.2105 c 38.03405,-9.92572 18.32558,-62.93811 25.9675,-91.6256 -7.2097,-68.6557 -18.158,-136.3162 -25.94355,-204.96039 -7.08694,-26.66252 -9.92443,-75.3331 -49.36803,-67.80143 -28.49646,10.15348 -52.54972,33.51951 -72.66782,56.3954 -22.17314,35.65852 -50.95499,68.57894 -62.20899,109.70932 5.72502,44.36705 28.51995,85.46972 58.60539,118.2159 19.74661,33.73447 51.63597,56.94496 85.3631,74.9771 12.64908,5.89525 26.5703,7.13916 40.2524,5.0897 z m -958.702083,19.0619 c -29.816864,-10.4861 -46.500137,-37.47493 -52.293597,-67.3605 -4.96909,-34.91669 -3.84867,-72.17966 -4.2433,-108.2005 3.28796,-49.04405 7.41902,-99.26656 17.674797,-148.30903 6.218669,-22.10637 20.884292,-46.55595 42.189875,-59.41169 15.926804,-1.71859 49.2496541,-14.11387 63.3642251,7.0994 10.6346829,12.35244 25.2143739,25.97437 33.1470359,42.989 20.038014,28.77676 35.725577,59.87824 47.223164,93.74706 3.886457,23.74374 17.626213,33.10363 27.543103,54.80846 5.27735,26.46161 -36.978611,37.54751 -36.118503,69.4292 -10.566632,23.47301 -27.729561,43.89944 -42.978,64.4352 -9.825659,12.52108 -28.70411,27.12463 -43.6078999,36.5149 -14.9183551,9.34716 -33.8473771,18.27954 -51.9009001,14.2585 z m 15.0336,-27.9711 c 33.223177,-3.36799 56.316748,-25.23101 77.4048,-48.2428 11.806656,-19.65859 24.201478,-36.42436 31.7632,-56.3249 17.842562,-34.54643 13.81683,-75.60421 0.9938,-111.39305 -9.602623,-20.77419 -17.2879,-46.39678 -34.805275,-61.32313 -9.506097,-22.20807 -25.1199628,-49.99002 -49.188525,-58.59589 -18.950936,-8.73099 -38.021897,6.23841 -51.4729,18.83366 -13.597365,27.72882 -14.335198,56.57305 -22.0265,85.95422 -4.413264,26.20693 -6.370523,53.59651 -6.8528,78.22139 -2.512917,26.60245 -1.964365,58.92932 1.7697,82.2806 -0.142422,26.21517 9.611125,68.54004 41.711363,67.11982 3.598827,-0.68952 6.921914,6.56016 10.703137,3.47008 z m 540.917983,25.2478 c 5.50682,-1.6231 0.99942,1.75027 0,0 z m -278.87498,-65.3377 c -17.62988,-34.91528 27.26723,-21.20515 37.1517,-32.5242 34.7719,-4.64504 69.32293,-10.48839 103.85923,-8.04286 31.59855,-3.14797 65.75391,5.26777 98.8457,-0.5549 43.32677,-2.91973 86.3476,-2.50261 129.53629,-4.42455 35.68076,19.55832 -11.2606,42.93347 -35.76794,31.79111 -31.26277,-1.20941 -66.86294,3.66624 -100.0479,1.65491 -46.23386,0.43411 -91.38865,1.80942 -137.45208,4.07909 -26.56985,-0.64064 -56.80352,-0.21903 -82.96582,8.57178 -4.26232,0.0288 -9.11316,1.58532 -13.15918,-0.55038 z M 67.650357,409.13603 c 0.643442,-3.85403 1.014256,4.55154 0,0 z m 116.421103,-73.798 c -22.49567,-14.14314 2.35439,-42.11322 23.3978,-25.1221 61.32208,-8.84763 124.2839,-6.39078 185.83591,-6.4923 76.34108,-0.6952 152.6126,3.30036 228.92308,3.40214 34.25291,-2.43744 30.45482,38.69425 -2.9919,25.41229 -85.59679,-0.11347 -171.35967,-8.71835 -257.27959,-6.66013 -37.97618,2.2649 -77.68063,10.29218 -114.1506,10.2848 -20.69455,-4.35775 -42.78658,0.61585 -63.7347,-0.8247 z m 109.4729,-70.74507 c -32.52831,-4.60269 -49.29908,-38.71595 -54.7747,-67.19428 -1.9489,-19.28138 3.16288,-50.45511 8.95662,-73.80481 10.01988,-23.962712 17.26543,-49.328539 42.7257,-60.373235 15.46461,-25.874682 82.40285,-20.598688 62.37285,15.893332 -26.94085,-8.652514 -63.44281,-11.202404 -75.93097,18.725869 -18.94469,34.273754 -28.89576,76.713704 -12.4537,114.157814 9.19167,23.60113 37.55125,37.76314 60.9086,22.97165 38.13352,-20.2967 46.92812,-63.94174 50.9381,-103.23127 -4.72578,-19.94592 6.46135,-46.444974 17.3637,-14.05115 -7.17465,30.72326 -0.89434,62.87831 -17.9836,91.42687 -16.9551,27.41207 -46.49784,58.29004 -82.1226,55.47921 z m 218.5219,-7.71855 c -28.40739,-1.53839 -45.30419,-30.57244 -39.03654,-57.08759 7.37826,-24.64552 14.99932,-62.19067 48.51288,-59.48176 31.47738,-6.16624 48.17179,45.84011 10.30425,25.38803 -31.86579,-6.47428 -55.02918,45.63313 -24.69266,64.02623 31.74334,17.48848 60.30471,-23.49614 51.22411,-52.47544 11.23263,-28.42626 18.35489,31.75491 21.44314,17.07982 -15.83233,10.06421 -7.94136,56.54672 -40.60681,59.23086 -8.45259,3.53969 -18.11161,3.9891 -27.14837,3.31985 z"
       id="path3012"
       inkscape:connector-curvature="0" />
    <text
       xml:space="preserve"
       style="font-size:163.09411621px;font-style:normal;font-variant:normal;font-weight:bold;font-stretch:normal;text-align:center;line-height:125%;letter-spacing:0px;word-spacing:0px;writing-mode:lr-tb;text-anchor:middle;fill:#d4aa00;fill-opacity:1;stroke:none;font-family:Arial;-inkscape-font-specification:Arial Bold"
       x="413.57458"
       y="765.92883"
       id="text3038"
       sodipodi:linespacing="125%"><tspan
         sodipodi:role="line"
         id="tspan3040"
         x="413.57458"
         y="765.92883">bzzt.</tspan></text>
  </g>
</svg>
