<?xml version="1.0" encoding="UTF-8" standalone="no"?>
<!-- Created with Inkscape (http://www.inkscape.org/) -->

<svg
   xmlns:dc="http://purl.org/dc/elements/1.1/"
   xmlns:cc="http://creativecommons.org/ns#"
   xmlns:rdf="http://www.w3.org/1999/02/22-rdf-syntax-ns#"
   xmlns:svg="http://www.w3.org/2000/svg"
   xmlns="http://www.w3.org/2000/svg"
   xmlns:sodipodi="http://sodipodi.sourceforge.net/DTD/sodipodi-0.dtd"
   xmlns:inkscape="http://www.inkscape.org/namespaces/inkscape"
   width="1097.3894"
   height="782.1626"
   id="svg2"
   version="1.1"
   inkscape:version="0.48.4 r9939"
   sodipodi:docname="bzzt-logo-wordmark.svg">
  <defs
     id="defs4" />
  <sodipodi:namedview
     id="base"
     pagecolor="#ffffff"
     bordercolor="#666666"
     borderopacity="1.0"
     inkscape:pageopacity="0.0"
     inkscape:pageshadow="2"
     inkscape:zoom="0.7"
     inkscape:cx="266.68393"
     inkscape:cy="497.76305"
     inkscape:document-units="px"
     inkscape:current-layer="layer1"
     showgrid="false"
     fit-margin-top="20"
     fit-margin-left="20"
     fit-margin-right="20"
     fit-margin-bottom="20"
     borderlayer="true"
     inkscape:showpageshadow="false"
     inkscape:window-width="1920"
     inkscape:window-height="1080"
     inkscape:window-x="0"
     inkscape:window-y="0"
     inkscape:window-maximized="0" />
  <metadata
     id="metadata7">
    <rdf:RDF>
      <cc:Work
         rdf:about="">
        <dc:format>image/svg+xml</dc:format>
        <dc:type
           rdf:resource="http://purl.org/dc/dcmitype/StillImage" />
        <dc:title />
      </cc:Work>
    </rdf:RDF>
  </metadata>
  <g
     inkscape:label="Layer 1"
     inkscape:groupmode="layer"
     id="layer1"
     transform="translate(135.16704,-27.106101)">
    <path
       style="fill:#d4aa00;fill-opacity:1"
       d="m 323.875,43.15625 c -14.73983,-0.06722 -28.90884,7.368969 -38.625,18.09375 -23.07055,12.0759 -32.90968,38.073301 -40.93842,61.30312 -6.90256,24.8972 -11.46565,51.27801 -8.84283,77.19688 4.36663,26.88515 19.51953,54.34401 45.34375,65.6875 23.09939,8.82368 48.53585,-1.3978 66.5625,-16.71875 17.91988,-15.0897 32.94016,-35.04978 40.1875,-57.4375 6.96739,-24.38242 5.68198,-50.19606 9.28125,-75.03125 -1.12068,-7.52219 -5.97815,-17.566205 -14.71875,-17.40625 -9.88876,2.62597 -11.05954,15.06046 -10.59375,23.625 0.90054,14.31633 -0.68875,28.46627 -4.15812,42.31911 -5.6912,27.00487 -19.51428,54.49145 -44.87313,67.55589 -13.60242,7.39483 -31.78867,5.86576 -42.84375,-5.46875 -17.18239,-16.63782 -20.57552,-42.42205 -19.0625,-65.34375 2.36752,-25.75862 11.76661,-50.89073 26.3125,-72.09375 C 301.63081,73.988077 325.88147,75.609703 345,81 c 3.40954,-0.229738 8.43179,4.590751 10.78125,1.28125 8.03768,-10.792469 5.69851,-28.976562 -7.6875,-34.5625 -7.41386,-3.844585 -15.96316,-4.716066 -24.21875,-4.5625 z m 536,44.78125 c -24.08762,1.665232 -42.49668,19.29573 -61.00569,32.87368 -43.01978,38.42022 -69.90409,91.00535 -101.05681,139.06382 -11.14418,21.26052 -3.4972,46.02332 3.99799,67.00229 15.47144,42.51031 36.7684,84.89126 72.25201,114.31021 19.9406,19.46395 39.13758,40.90752 64.73565,52.95223 21.55124,11.03789 45.18324,18.74602 69.45185,19.42277 23.82844,-4.27597 40.32415,-29.27925 37.97832,-52.9687 1.07481,-104.37243 -5.40733,-209.85365 -31.9039,-310.99435 -5.03801,-21.74442 -14.56497,-44.88831 -34.60567,-56.6932 C 873.73298,89.575806 866.79942,87.708165 859.875,87.9375 z M -20.53125,109.375 c -16.734739,1.97615 -36.095739,1.78559 -48.787613,14.6229 -24.264806,21.448 -35.024147,53.78397 -37.874897,85.29573 -11.30058,73.53814 -16.01944,148.77728 -8.02499,222.89387 4.52583,30.0727 22.080454,60.47496 51.566195,71.90036 18.618782,6.73158 38.346366,-0.99158 54.5179813,-10.37015 C 13.731773,480.17438 34.607633,462.63122 49.96875,440.6875 c 8.253036,-12.11776 18.677233,-22.91634 25,-36.1875 4.976944,-7.76252 9.077598,-16.29284 10,-25.625 4.398559,-21.08256 28.70715,-29.98203 34.4375,-50.53125 4.18977,-15.50189 -8.94555,-28.15723 -16.53125,-40.1875 C 91.206203,269.0863 89.59601,245.67146 78.446914,226.28376 59.897496,187.34546 37.695168,149.18315 6.84375,118.71875 c -7.26555773,-7.34159 -17.230632,-9.84773 -27.375,-9.34375 z m 879.8125,12.125 c 15.79078,0.35333 25.44518,16.22309 28.38249,30.14491 13.46112,47.63574 14.51869,97.53341 22.75933,146.14971 4.13944,32.38777 9.8677,64.74211 10.67068,97.39288 -4.18146,24.46824 5.51692,51.51766 -7.4375,74.28125 -10.7483,13.22018 -30.56204,11.98176 -45.21875,6.875 -25.14895,-9.39208 -46.57229,-26.61569 -66.22436,-44.56458 -16.61125,-17.3731 -29.64066,-37.96327 -44.84437,-56.56289 -19.18765,-26.94307 -33.57594,-58.15448 -37.21252,-91.27878 12.69648,-41.61325 41.03123,-76.00774 65.39655,-111.42274 19.7094,-21.36203 41.65099,-43.64212 70.79095,-50.88976 0.98073,-0.0119 1.96147,-0.037 2.9375,-0.125 z M 524.0625,135.59375 c -16.5808,-0.92028 -33.60595,7.56645 -40.375,23.15625 -9.23349,16.97767 -14.5364,36.07478 -16.10078,55.24846 1.00488,24.48197 22.07225,48.17317 47.56953,47.00154 15.45358,0.15119 32.80785,-2.1505 44.34375,-13.21875 11.19341,-12.17783 11.0446,-30.07416 18.09375,-44.1875 4.10494,-4.17369 7.71837,-9.22379 7.46875,-15.25 0.59619,-1.21641 0.61714,-5.47083 -1.25,-3.03125 -0.85419,3.33355 -5.86655,4.11183 -6.0625,0.125 -1.82375,-7.79683 -4.71607,-18.10991 -13.65625,-19.84375 -2.72342,2.22222 -7.9947,0.88766 -6.625,-3.28125 -1.54781,-16.08688 -17.91137,-27.37468 -33.40625,-26.71875 z M -29.25,139.3125 c 22.81113,2.54594 38.8213331,22.10109 48.777628,41.13524 4.91846,11.17549 11.102553,21.7934 19.61217,30.57069 14.702308,21.64245 23.331143,46.90578 30.735202,71.82532 7.804293,33.42385 3.19654,69.8868 -14.625,99.15625 -17.283377,34.22745 -41.685,67.70177 -78.15625,82.71875 -7.671684,3.04136 -15.793097,4.99358 -24.0625,5.3125 -4.958947,-6.92294 -15.317755,-1.31716 -21.28125,-6.875 -17.043057,-9.93922 -21.241808,-31.47283 -23.210553,-49.64158 -6.430783,-53.03134 -3.537625,-106.82463 3.14644,-159.66199 5.040959,-29.10814 10.003399,-58.41039 18.876613,-86.57143 6.603671,-14.34913 21.201341,-24.18999 36.375,-27.625 1.260127,-0.217 2.532211,-0.30772 3.8125,-0.34375 z m 555.3125,29.96875 c 9.58822,1.13926 19.59258,8.97942 28.97038,2.70401 1.33825,1.07853 -1.26823,7.1328 0.12337,10.38974 4.21228,18.97892 -7.66292,41.03284 -26.59375,46.5625 -17.47535,5.7278 -35.37442,-12.72499 -31.5,-30 2.76624,-14.29053 13.1534,-29.22326 29,-29.65625 z M 320.96875,299.375 c -37.45613,0.17786 -74.99006,2.25044 -112.21875,5.59375 -7.5273,-3.52883 -16.34801,-6.17335 -24.28125,-2.21875 -10.32951,4.09787 -17.25238,17.37662 -11.09375,27.46875 4.63348,8.87732 15.70784,11.39507 24.71617,9.11719 20.12501,-1.34216 40.32907,-0.60802 60.4044,0.50104 52.99733,-2.84248 105.68651,-14.06733 158.94047,-9.90374 67.82406,1.72253 135.63213,5.40032 203.40771,7.56676 10.64053,4.67538 27.20063,0.51487 29.1875,-12.46875 C 651.60666,311.5178 637.06151,300.93266 624.4376,303.29814 523.28241,301.80607 422.14693,298.6645 320.96875,299.375 z m 261.96875,84.65625 c -50.53414,2.33152 -101.25908,2.21327 -151.71875,6.53125 -48.88231,-1.69685 -98.21691,-4.88015 -146.75,2.625 -10.66966,1.74968 -21.83489,2.506 -32.15625,5.21875 -11.67772,8.41007 -29.74879,1.11113 -39.1875,13.4375 -5.64409,8.33659 -2.66616,22.72422 7.09375,26.46875 12.65795,2.39906 24.40062,-5.47966 37.10407,-6.03861 C 291.9552,427.40174 327.182,430.79206 362,427.625 c 56.78224,-2.58082 113.67775,-0.64938 170.4375,-3.78125 12.76927,-0.86401 25.17138,2.29894 37.8125,2.84375 13.47622,-0.36311 28.52168,-6.72843 34.09375,-19.6875 2.20702,-12.09674 -9.59185,-23.54245 -21.40625,-22.96875 z m -81.71875,81.1875 c -46.86849,6.97648 -94.20118,11.14509 -140.78125,19.84375 -10.04372,2.74926 -22.4987,7.13954 -26.125,18 -0.82322,10.92433 9.88028,18.9956 19.15625,22.125 10.07052,1.05274 19.5414,-3.89906 29.60136,-4.29427 35.94051,-5.98245 71.70204,-14.09359 107.99239,-17.17448 8.19993,-0.32509 16.13554,-2.80895 24.40625,-2.71875 8.82358,-0.67326 20.24718,-7.0824 18.4375,-17.34375 -2.51934,-10.13691 -12.82649,-15.86838 -21.78125,-19.53125 -3.61359,-0.6452 -7.29353,0.86534 -10.90625,1.09375 z"
       id="path3012"
       inkscape:connector-curvature="0" />
    <text
       xml:space="preserve"
       style="font-size:163.09411621px;font-style:normal;font-variant:normal;font-weight:bold;font-stretch:normal;text-align:center;line-height:125%;letter-spacing:0px;word-spacing:0px;writing-mode:lr-tb;text-anchor:middle;fill:#d4aa00;fill-opacity:1;stroke:none;font-family:Arial;-inkscape-font-specification:Arial Bold"
       x="413.57458"
       y="765.92883"
       id="text3038"
       sodipodi:linespacing="125%"><tspan
         sodipodi:role="line"
         id="tspan3040"
         x="413.57458"
         y="765.92883">bzzt.</tspan></text>
  </g>
</svg>
