<svg id="Layer_1" data-name="Layer 1" xmlns="http://www.w3.org/2000/svg" viewBox="0 -50 380 280">
  <defs>
    <style>
      .cls-1 {
        fill: #cca601;
      }

      .cls-2 {
        fill: none;
        stroke: #cca601;
        stroke-miterlimit: 10;
        stroke-width: 20px;
      }
    </style>
  </defs>
  <rect class="cls-1" x="129.86" y="122" width="127.56" height="18"/>
  <rect class="cls-1" x="122.77" y="83.6" width="141.73" height="18"/>
  <rect class="cls-1" x="163.57" y="160" width="58.14" height="18"/>
  <path class="cls-1" d="M153.57,70a35,35,0,1,1,35-35A35,35,0,0,1,153.57,70Zm0-52a17,17,0,1,0,17,17A17,17,0,0,0,153.57,18Z"/>
  <path class="cls-1" d="M231.42,70a35,35,0,1,1,35-35A35,35,0,0,1,231.42,70Zm0-52a17,17,0,1,0,17,17A17,17,0,0,0,231.42,18Z"/>
  <path class="cls-1" d="M49.32,158c-13.76,0-26.48-7.21-35.83-20.3C4.79,125.57,0,109.54,0,92.6s4.79-33,13.49-45.15c9.35-13.09,22.08-20.3,35.83-20.3,13.05,0,25,10.82,36.51,33.09A214.41,214.41,0,0,1,98.21,89.86l0.88,2.74-0.88,2.74A214.41,214.41,0,0,1,85.83,125C74.31,147.22,62.37,158,49.32,158Zm0-112.9C32.34,45.15,18,66.88,18,92.6S32.34,140,49.32,140c8.87,0,23-24.46,30.84-47.45C72.32,69.61,58.19,45.15,49.32,45.15Z"/>
  <path class="cls-1" d="M330,158c-13.05,0-25-10.82-36.5-33.09a214.34,214.34,0,0,1-12.39-29.62l-0.88-2.74,0.88-2.74a214.34,214.34,0,0,1,12.39-29.62C305,38,316.91,27.15,330,27.15c13.76,0,26.48,7.21,35.83,20.3,8.7,12.18,13.49,28.21,13.49,45.15s-4.79,33-13.49,45.15C356.44,150.84,343.72,158,330,158ZM299.12,92.6c7.84,23,22,47.45,30.84,47.45,17,0,31.32-21.73,31.32-47.45S346.94,45.15,330,45.15C321.06,45.15,306.94,69.61,299.12,92.6Z"/>
</svg>
