<?xml version="1.0" encoding="UTF-8" standalone="no"?>
<!-- Created with Inkscape (http://www.inkscape.org/) -->

<svg
   xmlns:dc="http://purl.org/dc/elements/1.1/"
   xmlns:cc="http://creativecommons.org/ns#"
   xmlns:rdf="http://www.w3.org/1999/02/22-rdf-syntax-ns#"
   xmlns:svg="http://www.w3.org/2000/svg"
   xmlns="http://www.w3.org/2000/svg"
   xmlns:sodipodi="http://sodipodi.sourceforge.net/DTD/sodipodi-0.dtd"
   xmlns:inkscape="http://www.inkscape.org/namespaces/inkscape"
   width="49.468887"
   height="65.940994"
   id="svg6883"
   version="1.1"
   inkscape:version="0.48.4 r9939"
   sodipodi:docname="New document 11">
  <defs
     id="defs6885" />
  <sodipodi:namedview
     id="base"
     pagecolor="#ffffff"
     bordercolor="#666666"
     borderopacity="1.0"
     inkscape:pageopacity="0.0"
     inkscape:pageshadow="2"
     inkscape:zoom="1"
     inkscape:cx="-32.803083"
     inkscape:cy="60.608076"
     inkscape:document-units="px"
     inkscape:current-layer="layer1"
     showgrid="false"
     fit-margin-top="0"
     fit-margin-left="0"
     fit-margin-right="0"
     fit-margin-bottom="0"
     inkscape:window-width="479"
     inkscape:window-height="438"
     inkscape:window-x="718"
     inkscape:window-y="318"
     inkscape:window-maximized="0" />
  <metadata
     id="metadata6888">
    <rdf:RDF>
      <cc:Work
         rdf:about="">
        <dc:format>image/svg+xml</dc:format>
        <dc:type
           rdf:resource="http://purl.org/dc/dcmitype/StillImage" />
        <dc:title></dc:title>
      </cc:Work>
    </rdf:RDF>
  </metadata>
  <g
     inkscape:label="Layer 1"
     inkscape:groupmode="layer"
     id="layer1"
     transform="translate(-372.40837,-430.8203)">
    <g
       transform="translate(2695.49,-7648.537)"
       id="g6866">
      <path
         style="fill:#000000"
         d="m -2294.0706,8079.3573 c -0.5619,0 -0.6137,0.179 -0.8562,1.398 -0.4449,2.236 -0.7596,2.66 -1.8094,2.463 -0.4992,-0.09 -1.1142,-0.03 -1.4297,0.138 -0.5074,0.271 -0.5456,0.437 -0.4039,1.955 0.179,1.916 0.5092,2.502 2.0356,3.602 1.0711,0.772 1.1159,0.865 1.4539,2.932 0.1918,1.173 0.2928,2.187 0.2181,2.262 -0.075,0.08 -0.7548,0.215 -1.5105,0.307 -1.1545,0.141 -1.3862,0.259 -1.454,0.735 -0.1194,0.839 1.0706,1.333 3.6915,1.535 2.1827,0.168 2.265,0.194 3.5137,1.316 1.2689,1.141 1.2763,1.164 1.2763,2.755 0,1.889 -0.9148,4.896 -1.8336,6.05 -0.7033,0.883 -0.9619,1.01 -4.2407,1.947 -4.8117,1.374 -6.8431,1.701 -11.5025,1.866 -4.8856,0.172 -7.8532,-0.16 -9.7577,-1.091 l -0.9693,-0.468 0.081,-1.745 c 0.073,-1.586 0.016,-1.802 -0.5977,-2.415 -0.6132,-0.614 -0.7206,-0.636 -1.2278,-0.299 -0.6477,0.43 -0.8915,1.16 -1.2359,3.772 -0.199,1.51 -0.4094,2.099 -1.05,2.908 -1.8616,2.35 -1.8696,5.725 -0.024,9.103 0.5581,1.022 1.1022,2.149 1.2116,2.504 0.1094,0.356 0.5655,1.228 1.0178,1.939 0.8118,1.276 1.4378,2.737 1.4378,3.376 0,0.181 -0.5816,0.967 -1.2924,1.745 -0.7108,0.778 -1.2924,1.631 -1.2924,1.898 0,0.268 0.329,0.887 0.735,1.382 0.406,0.494 1.5401,1.972 2.5202,3.279 1.7022,2.27 2.3725,3.32 4.1115,6.495 0.9203,1.679 1.8962,2.503 2.6818,2.253 0.907,-0.288 0.9251,-1.214 0.065,-2.948 -1.138,-2.294 -2.8969,-4.938 -4.3942,-6.591 -0.7205,-0.796 -1.6238,-1.915 -2.0032,-2.488 -0.6673,-1.009 -0.6756,-1.063 -0.2262,-1.559 0.8218,-0.908 1.3088,-0.625 2.8191,1.623 2.0706,3.082 2.9819,4.312 5.1857,6.987 1.08,1.311 2.2806,2.765 2.6657,3.24 0.5191,0.639 0.9226,0.873 1.567,0.904 2.0536,0.1 1.6623,-1.888 -0.9047,-4.604 -2.3681,-2.505 -4.1404,-4.735 -6.1389,-7.706 -2.0078,-2.985 -2.2048,-3.858 -1.1228,-5.024 0.6698,-0.722 1.3404,-0.737 3.0856,-0.05 2.2531,0.888 7.5861,1.593 11.8417,1.559 6.678,-0.05 10.3393,-1.193 10.3393,-3.215 0,-0.951 -0.6547,-1.72 -1.4539,-1.72 -0.3264,0 -1.384,0.411 -2.3506,0.913 -0.9666,0.501 -2.4507,1.018 -3.3037,1.155 -3.7947,0.61 -12.7933,0.02 -14.7335,-0.97 -0.4265,-0.217 -1.1087,-0.674 -1.5105,-1.009 -1.033,-0.862 -1.7203,-0.76 -2.9564,0.428 -0.5919,0.568 -1.2805,1.023 -1.5348,1.018 -0.6178,-0.01 -2.0277,-1.972 -2.3909,-3.32 -0.1604,-0.596 -0.6267,-1.612 -1.0339,-2.254 -1.5837,-2.497 -1.5925,-5.695 -0.016,-7.205 0.8474,-0.812 1.2855,-0.809 5.4362,0 2.4423,0.471 10.1606,0.565 12.6656,0.153 0.7819,-0.128 2.2941,-0.366 3.3603,-0.525 1.0662,-0.159 2.3717,-0.463 2.9079,-0.67 0.5363,-0.207 1.525,-0.498 2.1971,-0.646 2.2371,-0.495 3.3395,-1.199 4.16,-2.658 1.145,-2.037 1.8497,-4.374 1.8497,-6.139 0,-2.278 0.26,-2.632 1.761,-2.415 0.6663,0.1 1.3426,0.277 1.5024,0.404 0.1598,0.127 0.9531,0.508 1.769,0.84 l 1.4862,0.598 -1.147,0.29 c -1.9812,0.499 -2.0529,0.693 -2.3021,6.051 -0.1208,2.597 -0.289,5.001 -0.3715,5.347 -0.1487,0.622 -0.4196,2.757 -0.8967,7.003 -0.1357,1.209 -0.3663,3.785 -0.5088,5.727 -0.1426,1.942 -0.4847,4.443 -0.7593,5.558 -0.7386,2.996 -2.0875,7.141 -2.4718,7.584 -0.5906,0.682 -1.9386,3.924 -1.9386,4.661 0,0.769 0.5362,1.134 1.3086,0.889 0.2558,-0.08 0.7199,-0.697 1.0258,-1.365 0.3124,-0.683 0.905,-1.439 1.3571,-1.729 0.8388,-0.539 1.1271,-1.136 2.5202,-5.299 1.1435,-3.417 1.5985,-5.578 1.8417,-8.716 0.3251,-4.196 0.2575,-4.095 2.5686,-3.99 1.0505,0.05 1.9643,0.14 2.0275,0.202 0.063,0.06 -0.1403,1.242 -0.4523,2.625 -0.6345,2.814 -0.7325,5.031 -0.2424,5.42 0.1777,0.141 0.7386,0.328 1.252,0.42 1.2015,0.216 1.4436,-0.08 1.8983,-2.334 0.1966,-0.976 0.5574,-2.467 0.7997,-3.32 0.2422,-0.853 0.5269,-1.9 0.6381,-2.326 0.2505,-0.961 0.3022,-3.42 0.089,-4.217 -0.1965,-0.734 -1.8308,-1.599 -3.0129,-1.599 -0.6649,0 -1.1268,0.246 -1.9548,1.034 -0.788,0.749 -1.3098,1.034 -1.8901,1.034 l -0.7997,0 0.1535,-2.262 c 0.084,-1.244 0.3318,-3.716 0.5573,-5.493 0.2256,-1.777 0.5217,-4.149 0.6543,-5.266 0.1326,-1.118 0.3772,-2.194 0.5412,-2.391 0.1805,-0.218 0.7989,-0.356 1.5671,-0.356 1.6263,0 2.8374,-0.518 3.5379,-1.502 0.7189,-1.01 0.7109,-2.02 -0.024,-2.674 -0.6984,-0.621 -4.1969,-2.022 -5.105,-2.043 -0.8622,-0.02 -2.9239,-0.872 -3.0533,-1.261 -0.1669,-0.5 0.747,-1.308 1.4782,-1.308 1.2723,0 4.4183,-2.507 4.4184,-3.522 0,-1.186 -1.3907,-1.772 -2.6333,-1.107 -0.8282,0.444 -1.0264,-0.129 -0.9208,-2.738 0.077,-1.895 0.2213,-2.574 0.7835,-3.667 1.0042,-1.952 0.564,-3.609 -0.9047,-3.401 -0.4369,0.06 -0.781,0.485 -1.3005,1.575 -0.3895,0.818 -0.8039,1.487 -0.9208,1.487 -0.117,0 -0.5446,-0.349 -0.9532,-0.776 -0.8346,-0.871 -2.1039,-1.061 -2.3748,-0.355 -0.2214,0.577 0.8129,3.7 1.6236,4.895 0.9083,1.338 1.002,2.304 0.3877,4.063 -0.5593,1.601 -2.6333,4.463 -3.4087,4.709 -0.6786,0.215 -1.7825,-0.433 -3.0291,-1.785 -1.1053,-1.199 -1.4167,-2.221 -0.6785,-2.221 0.2225,0 1.0367,-0.657 1.8094,-1.454 1.4987,-1.548 1.7867,-2.519 0.9935,-3.312 -0.6195,-0.62 -1.2512,-0.495 -2.4233,0.484 -0.5876,0.491 -1.2203,0.834 -1.4135,0.76 -0.8575,-0.329 -1.1792,-3.834 -0.5413,-5.937 0.4968,-1.638 0.5076,-3.316 0.016,-3.724 -0.2093,-0.174 -0.7629,-0.334 -1.2278,-0.355 -0.1032,0 -0.1943,0 -0.2746,0 z"
         id="path6862"
         inkscape:connector-curvature="0" />
      <path
         style="fill:#ffffff"
         d="m -2289.2473,8123.6623 c -0.3264,0 -1.384,0.411 -2.3506,0.913 -0.9666,0.501 -2.4507,1.018 -3.3037,1.155 -3.7947,0.61 -12.7933,0.02 -14.7335,-0.97 -0.4265,-0.217 -1.1087,-0.674 -1.5105,-1.009 -1.033,-0.862 -1.7203,-0.76 -2.9564,0.428 -0.5919,0.568 -1.2805,1.023 -1.5348,1.018 -0.6178,-0.01 -2.0277,-1.972 -2.3909,-3.32 -1.2462,-2.9454 -3.2401,-7.1888 -1.0499,-9.459 0.8474,-0.812 1.2855,-0.809 5.4362,0 2.4423,0.471 10.1606,0.565 12.6656,0.153 0.7819,-0.128 2.2941,-0.366 3.3603,-0.525 1.0662,-0.159 2.3717,-0.463 2.9079,-0.67 0.5363,-0.207 1.525,-0.498 2.1971,-0.646 2.2371,-0.495 3.3395,-1.199 4.16,-2.658 1.145,-2.037 1.8497,-4.374 1.8497,-6.139 0,-2.278 0.26,-2.632 1.761,-2.415 0.6663,0.1 1.3426,0.277 1.5024,0.404 0.1598,0.127 0.9531,0.508 1.769,0.84 l 1.4862,0.598 -1.147,0.29 c -1.9812,0.499 -2.0529,0.693 -2.3021,6.051 -0.1208,2.597 -0.289,5.001 -0.3715,5.347 -0.1487,0.622 -0.4196,2.757 -0.8967,7.003 0,-1.9357 -2.8058,4.4549 -4.5478,3.611 z"
         id="path6864"
         inkscape:connector-curvature="0"
         sodipodi:nodetypes="cccccccccccscccscscccsccc" />
    </g>
  </g>
</svg>
