<?xml version="1.0" encoding="UTF-8" standalone="no"?>
<!-- Created with Inkscape (http://www.inkscape.org/) -->

<svg
   xmlns:dc="http://purl.org/dc/elements/1.1/"
   xmlns:cc="http://creativecommons.org/ns#"
   xmlns:rdf="http://www.w3.org/1999/02/22-rdf-syntax-ns#"
   xmlns:svg="http://www.w3.org/2000/svg"
   xmlns="http://www.w3.org/2000/svg"
   xmlns:sodipodi="http://sodipodi.sourceforge.net/DTD/sodipodi-0.dtd"
   xmlns:inkscape="http://www.inkscape.org/namespaces/inkscape"
   width="38.263432"
   height="59.968285"
   id="svg6932"
   version="1.1"
   inkscape:version="0.48.4 r9939"
   sodipodi:docname="New document 14">
  <defs
     id="defs6934" />
  <sodipodi:namedview
     id="base"
     pagecolor="#ffffff"
     bordercolor="#666666"
     borderopacity="1.0"
     inkscape:pageopacity="0.0"
     inkscape:pageshadow="2"
     inkscape:zoom="1.979899"
     inkscape:cx="38.232414"
     inkscape:cy="47.732006"
     inkscape:document-units="px"
     inkscape:current-layer="layer1"
     showgrid="false"
     inkscape:window-width="479"
     inkscape:window-height="438"
     inkscape:window-x="718"
     inkscape:window-y="318"
     inkscape:window-maximized="0"
     fit-margin-top="0"
     fit-margin-left="0"
     fit-margin-right="0"
     fit-margin-bottom="0" />
  <metadata
     id="metadata6937">
    <rdf:RDF>
      <cc:Work
         rdf:about="">
        <dc:format>image/svg+xml</dc:format>
        <dc:type
           rdf:resource="http://purl.org/dc/dcmitype/StillImage" />
        <dc:title></dc:title>
      </cc:Work>
    </rdf:RDF>
  </metadata>
  <g
     inkscape:label="Layer 1"
     inkscape:groupmode="layer"
     id="layer1"
     transform="translate(-426.58257,-330.94947)">
    <path
       style="fill:#000000"
       d="m 442.87547,330.95483 c 0.6349,0.05 0.7922,1.398 0.8562,5.582 0.037,2.402 0.1562,3.997 0.3069,3.982 0.1383,-0.01 0.5067,-0.479 0.8159,-1.034 0.7598,-1.364 1.0521,-1.656 1.6478,-1.656 0.7604,0 0.6554,1.357 -0.2504,3.271 -0.5818,1.23 -0.9987,1.735 -1.8094,2.198 -0.879,0.501 -1.1125,0.825 -1.4378,1.938 -0.5256,1.798 -0.5173,2.261 0.056,2.011 0.2488,-0.107 0.8304,-0.25 1.2924,-0.315 0.8719,-0.122 1.0403,0.148 0.6786,1.091 -0.1897,0.494 -1.9248,1.438 -2.6495,1.438 -0.5989,0 -1.7687,1.319 -2.0032,2.253 -0.1229,0.49 -0.034,0.766 0.3554,1.075 0.4834,0.382 0.5298,0.715 0.5412,4.022 0.012,3.525 0.025,3.624 0.735,4.621 0.3992,0.56 1.2002,1.355 1.7771,1.769 0.977,0.701 1.2608,0.761 4.1357,0.904 2.3374,0.117 3.7432,0.05 5.7916,-0.298 2.4856,-0.419 3.8147,-0.428 7.0922,-0.06 0.3645,0.04 0.5866,-0.223 0.8643,-1.042 0.3836,-1.131 1.3557,-1.73 1.9144,-1.171 0.1496,0.149 0.2703,2.296 0.2908,5.137 0.03,4.091 -0.042,5.117 -0.4363,6.309 -0.2585,0.782 -0.5191,2.061 -0.5815,2.843 -0.1005,1.259 0.01,1.665 0.937,3.57 0.5762,1.184 1.0459,2.405 1.0501,2.714 0.013,0.946 -3.9257,8.382 -4.6043,8.692 -0.7001,0.319 -1.6074,-0.04 -1.6074,-0.646 0,-0.329 1.6756,-3.717 3.1664,-6.406 0.5263,-0.949 0.5843,-2.363 0.1292,-3.255 -0.5311,-1.041 -0.941,-0.928 -1.5104,0.412 -2.4913,5.861 -4.7365,9.135 -6.2682,9.135 -0.8783,0 -1.1301,-0.607 -0.5736,-1.365 1.3163,-1.792 3.2603,-4.896 3.8369,-6.131 1.1303,-2.421 2.2296,-5.552 2.0275,-5.759 -0.106,-0.108 -0.8843,0.06 -1.7286,0.364 -3.8333,1.393 -14.0354,0.09 -15.6786,-1.995 -0.5482,-0.697 -1.7484,-1.398 -2.3829,-1.398 -0.7155,0 -0.4567,1.827 0.7351,5.194 1.2819,3.622 1.8343,5.102 2.4151,6.494 0.3261,0.782 0.3379,1.038 0.073,1.357 -0.8262,0.996 -1.9968,-0.156 -2.9726,-2.932 -0.9262,-2.635 -2.2949,-7.009 -2.8433,-9.079 -0.717,-2.706 -0.7967,-2.843 -1.7044,-2.843 -0.7846,0 -0.8044,0.03 -0.6785,0.969 0.071,0.533 0.3281,1.696 0.5735,2.585 0.5009,1.813 0.3051,2.391 -0.8158,2.391 -0.6908,0 -0.8576,-0.305 -1.4701,-2.714 -0.2169,-0.853 -0.5248,-2.059 -0.6866,-2.674 -0.4389,-1.668 -0.1583,-2.538 0.937,-2.9 0.4986,-0.164 1.1949,-0.246 1.5509,-0.177 0.928,0.177 1.0118,-0.301 0.5008,-2.957 -0.2988,-1.553 -0.4288,-3.31 -0.3878,-5.355 0.034,-1.675 -0.01,-3.159 -0.097,-3.304 -0.089,-0.145 -1.3852,-0.336 -2.8756,-0.42 -3.0141,-0.171 -3.7133,-0.426 -4.6688,-1.721 -0.3602,-0.488 -0.6543,-0.969 -0.6543,-1.066 0,-0.448 0.9661,-0.885 2.294,-1.042 2.5965,-0.306 6.3573,-1.064 6.7125,-1.349 0.2687,-0.216 0.308,-0.803 0.1696,-2.617 -0.3392,-4.447 -0.4286,-4.689 -2.4556,-6.591 -0.9937,-0.933 -1.8094,-1.906 -1.8094,-2.173 0,-0.433 0.1396,-0.468 1.2925,-0.315 1.4121,0.187 1.4284,0.17 1.3247,-1.527 -0.061,-0.999 -0.7796,-2.972 -1.0824,-2.972 -0.3715,0 -1.6003,-2.008 -1.4136,-2.311 0.2417,-0.391 1.5012,-0.345 2.084,0.08 0.2981,0.218 0.8284,0.315 1.3248,0.235 0.731,-0.119 0.8717,-0.04 1.2681,0.726 0.3828,0.741 0.425,1.339 0.2908,4.144 -0.1302,2.722 -0.073,3.579 0.3231,5.049 0.2623,0.973 0.5504,2.774 0.6382,4.006 0.1957,2.749 0.3325,3.189 0.8562,2.755 1.0502,-0.872 2.916,-5.776 2.916,-7.658 0,-1.125 -0.1069,-1.338 -1.1632,-2.375 -1.3094,-1.285 -2.0817,-2.993 -1.8255,-4.014 0.1439,-0.574 0.2851,-0.658 0.9854,-0.59 0.702,0.07 0.8512,0.203 1.0017,0.945 0.2112,1.042 0.8164,1.718 1.357,1.511 0.3287,-0.127 0.3851,-0.722 0.3312,-3.676 -0.055,-3.014 -0.01,-3.549 0.3473,-3.74 0.2024,-0.108 0.3785,-0.164 0.5251,-0.153 z m -4.0146,23.288 -3.0049,0.04 c -2.4861,0.04 -3.1931,0.142 -4.0711,0.59 -0.5843,0.298 -1.0662,0.645 -1.0662,0.775 0,0.319 2.0861,0.617 3.2956,0.469 0.9481,-0.116 3.3345,0.415 3.7804,0.84 0.123,0.117 0.019,0.821 -0.2343,1.583 -0.6298,1.896 -0.6412,6.154 -0.024,8.885 0.8017,3.55 0.8874,3.748 1.6882,3.748 0.4605,0 1.3445,0.478 2.504,1.365 2.736,2.093 6.5956,3.276 11.2198,3.433 2.4281,0.08 4.2775,-0.376 6.5913,-1.639 1.5935,-0.871 1.9243,-1.699 2.0113,-5.097 0.052,-2.023 -0.016,-2.483 -0.42,-2.933 -1.127,-1.252 -5.1355,-1.75 -7.4395,-0.928 -0.8245,0.293 -2.1261,0.398 -4.8061,0.395 -5.517,0 -6.4819,-0.299 -8.013,-2.431 -1.2555,-1.748 -1.6065,-2.907 -1.8174,-6.123 l -0.1939,-2.972 z"
       id="path6592"
       inkscape:connector-curvature="0" />
  </g>
</svg>
