<?xml version="1.0" encoding="UTF-8" standalone="no"?>
<!-- Created with Inkscape (http://www.inkscape.org/) -->

<svg
   xmlns:dc="http://purl.org/dc/elements/1.1/"
   xmlns:cc="http://creativecommons.org/ns#"
   xmlns:rdf="http://www.w3.org/1999/02/22-rdf-syntax-ns#"
   xmlns:svg="http://www.w3.org/2000/svg"
   xmlns="http://www.w3.org/2000/svg"
   xmlns:sodipodi="http://sodipodi.sourceforge.net/DTD/sodipodi-0.dtd"
   xmlns:inkscape="http://www.inkscape.org/namespaces/inkscape"
   width="189.14859"
   height="153.6454"
   id="svg7144"
   version="1.1"
   inkscape:version="0.48.4 r9939"
   sodipodi:docname="forest-1.svg">
  <defs
     id="defs7146" />
  <sodipodi:namedview
     id="base"
     pagecolor="#ffffff"
     bordercolor="#666666"
     borderopacity="1.0"
     inkscape:pageopacity="0.0"
     inkscape:pageshadow="2"
     inkscape:zoom="0.7"
     inkscape:cx="151.16808"
     inkscape:cy="0.18388686"
     inkscape:document-units="px"
     inkscape:current-layer="layer1"
     showgrid="false"
     fit-margin-top="0"
     fit-margin-left="0"
     fit-margin-right="0"
     fit-margin-bottom="0"
     inkscape:window-width="479"
     inkscape:window-height="438"
     inkscape:window-x="718"
     inkscape:window-y="318"
     inkscape:window-maximized="0" />
  <metadata
     id="metadata7149">
    <rdf:RDF>
      <cc:Work
         rdf:about="">
        <dc:format>image/svg+xml</dc:format>
        <dc:type
           rdf:resource="http://purl.org/dc/dcmitype/StillImage" />
        <dc:title></dc:title>
      </cc:Work>
    </rdf:RDF>
  </metadata>
  <g
     inkscape:label="Layer 1"
     inkscape:groupmode="layer"
     id="layer1"
     transform="translate(-266.13084,-313.21341)">
    <path
       inkscape:connector-curvature="0"
       id="path7363"
       d="m 311.64158,313.21341 c 2.17701,0 3.0856,0.89839 4.27167,4.17088 0.51162,1.41137 1.60395,4.0094 2.43869,5.78536 0.83474,1.77596 1.86766,4.20734 2.28724,5.39859 0.97284,2.76248 5.08116,9.13204 5.88624,9.13204 0.62091,0 2.14786,-1.92248 6.0376,-7.56804 3.59272,-5.21459 6.24675,-7.0644 8.27437,-5.78536 0.45748,0.28853 2.202,3.05356 3.88498,6.13848 1.68299,3.08501 3.43473,5.6782 3.88489,5.76862 0.45019,0.0904 1.47341,-0.71567 2.28725,-1.78276 2.03075,-2.66228 5.64038,-4.71343 7.46716,-4.25492 1.41978,0.35643 2.55995,1.98681 3.17867,4.57447 0.41982,1.75608 2.35453,4.25493 3.29627,4.25493 0.42493,0 0.96238,-1.14485 1.32859,-2.82537 1.88304,-8.64142 4.59776,-15.38789 6.64305,-16.53198 1.3087,-0.72995 1.62094,-0.73029 2.92633,0 0.9448,0.52845 1.59545,1.4446 1.83316,2.60679 0.68227,3.33597 2.18177,6.0014 3.599,6.35715 1.51437,0.38006 1.95129,-0.045 4.52408,-4.54082 2.71234,-4.74012 5.09961,-5.15477 7.13078,-1.21089 0.68593,1.33191 1.78106,3.61371 2.42178,5.06222 0.64062,1.44833 1.34414,2.41709 1.58083,2.15262 0.23668,-0.2644 0.8281,-2.51101 1.31185,-4.99491 1.1372,-5.83907 2.2676,-7.81263 4.59122,-8.03894 2.28808,-0.22292 3.01863,0.4545 3.85132,3.5486 0.69494,2.58197 2.84849,8.29229 3.71671,9.85519 0.26125,0.4704 1.23426,3.37124 2.15271,6.44129 0.91853,3.07005 1.91806,5.81978 2.22001,6.12174 0.37326,0.37326 1.13755,-0.0816 2.38812,-1.44638 2.04758,-2.23498 3.80059,-2.57985 5.58352,-1.07627 1.09097,0.92006 3.39954,6.43993 4.42312,10.54477 0.28198,1.13049 1.23723,3.48334 2.11913,5.2304 0.88191,1.74698 1.59766,3.77221 1.59766,4.50717 0,0.73496 0.63332,2.98345 1.3959,4.9949 0.76259,2.01146 1.86052,5.0889 2.43852,6.84489 1.26536,3.84411 1.70967,4.44377 3.68322,4.8772 1.66557,0.36587 2.93356,1.55729 3.41399,3.22906 0.42655,1.4842 1.92205,5.6912 2.489,6.99625 0.25716,0.59201 1.24377,3.37702 2.20318,6.18896 0.95941,2.81194 1.96174,5.38839 2.22002,5.71814 0.49487,0.63187 1.88805,4.80215 3.39716,10.12434 0.49623,1.74979 1.52125,4.35249 2.27041,5.78536 2.37809,4.54797 0.74431,5.57248 -7.97172,5.01174 -4.52587,-0.29117 -5.82208,-0.22233 -6.18897,0.3532 -0.25496,0.39995 -0.44864,2.78254 -0.45408,5.29763 l -0.017,4.57447 -2.28723,0.79038 c -1.25797,0.43581 -2.28724,1.10533 -2.28724,1.47995 0,0.3747 0.70921,1.83545 1.56409,3.24588 3.38747,5.58871 2.79333,6.58203 -4.2381,7.16444 -5.54197,0.4591 -5.90452,0.69358 -5.95356,4.00269 -0.0178,1.18395 -0.343,3.36359 -0.72315,4.84354 -0.63943,2.48934 -0.89983,2.80736 -3.59908,4.17088 -3.01872,1.52491 -6.61041,1.94449 -7.28206,0.85768 -0.21153,-0.34224 -0.47907,-3.30894 -0.60544,-6.59265 -0.17916,-4.65453 -0.43513,-6.11859 -1.11001,-6.64304 -0.52496,-0.40794 -2.52605,-0.67275 -5.09587,-0.67275 -2.33084,0 -4.68674,-0.2304 -5.23032,-0.52131 -0.59201,-0.31683 -2.56378,-0.3708 -4.92768,-0.13453 l -3.9522,0.38677 -0.30273,1.88364 c -0.49564,2.98812 -1.42513,4.22858 -3.44764,4.60804 -1.01321,0.1902 -2.08284,0.19513 -2.37129,0.017 -1.31567,-0.81315 -2.23684,0.37139 -2.23684,2.85911 0,1.40389 -0.37292,3.03181 -0.84086,3.69989 -0.76394,1.09054 -1.27913,1.19405 -5.85267,1.19405 -6.11349,0 -6.70151,0.41304 -5.70122,3.98587 0.36365,1.29893 0.50023,2.87577 0.30272,3.49812 -0.41907,1.32035 -1.19245,1.51641 -7.11404,1.8499 -5.78408,0.32584 -6.17995,-0.0612 -6.3908,-6.34032 -0.0841,-2.51322 -0.2938,-4.80921 -0.47082,-5.09579 -0.17711,-0.28657 -1.99217,-0.68992 -4.03635,-0.89134 -3.43795,-0.33875 -3.76404,-0.47184 -4.35581,-1.90038 -0.7524,-1.81658 -0.71056,-2.05616 1.84999,-10.37666 1.08314,-3.51988 1.90003,-6.47537 1.81633,-6.559 -0.0841,-0.0841 -0.865,-0.22309 -1.73228,-0.31963 -1.40628,-0.15629 -1.62978,0.0187 -2.05175,1.69871 -0.2603,1.03598 -0.53779,2.95089 -0.62227,4.25492 -0.18086,2.79215 -1.08477,3.63402 -4.43994,4.13714 -2.44931,0.36731 -5.30851,-0.43538 -5.68439,-1.58083 -0.11261,-0.34283 -0.27834,-2.19647 -0.35321,-4.12039 -0.0904,-2.32243 -0.41736,-3.76941 -0.97547,-4.30541 -0.7603,-0.72995 -0.79751,-0.40751 -0.50457,3.31319 0.23227,2.94979 0.13767,4.24974 -0.3363,4.60805 -1.01685,0.76895 -7.16019,2.30406 -9.21626,2.30406 -2.17251,0 -2.5484,-0.65941 -2.79171,-4.84354 -0.40377,-6.94008 -0.76531,-7.32073 -4.94451,-5.29763 -2.56227,1.24038 -1.90694,1.29417 -9.70393,-0.94182 -1.21028,-0.34708 -2.27041,-3.8226 -2.27041,-7.46716 l 0,-3.51495 -2.69084,0 c -1.48003,0 -2.69091,0.17473 -2.69091,0.38678 0,0.21212 0.40078,1.43992 0.89142,2.72457 0.83448,2.18577 0.83984,2.39314 -0.017,3.2458 -0.74032,0.73692 -1.96574,0.90817 -6.40756,0.90817 l -5.49946,0 -0.15136,4.38954 c -0.0928,2.61988 -0.41839,4.60397 -0.80728,4.91077 -0.3584,0.28284 -2.87339,0.65729 -5.58353,0.82412 -6.32637,0.38949 -6.66903,0.14269 -7.13077,-4.89403 -0.19308,-2.1069 -0.53754,-4.01833 -0.77363,-4.25493 -0.23601,-0.23652 -2.77226,-0.50983 -5.63401,-0.60544 -4.01059,-0.13411 -5.36774,-0.37148 -5.88624,-1.0427 -0.9923,-1.28431 -0.79819,-5.99154 0.3532,-8.52668 0.55233,-1.21641 1.40627,-3.63818 1.90038,-5.38168 0.49411,-1.74358 1.60327,-4.88247 2.45543,-6.96268 0.85207,-2.08013 1.94857,-4.98624 2.4386,-6.45812 0.49003,-1.47179 1.7367,-4.57286 2.7749,-6.89528 1.28396,-2.8722 1.80375,-4.67927 1.59774,-5.65083 -0.16658,-0.78561 -0.45952,-2.15602 -0.63909,-3.04404 -0.23245,-1.1497 0.14728,-2.73053 1.32858,-5.49939 0.94148,-2.20667 1.79942,-5.34904 1.98451,-7.2654 0.17941,-1.85729 0.66757,-3.91889 1.07636,-4.57439 1.298,-2.08183 0.95864,-2.24712 -3.96903,-1.96777 -2.74439,0.15561 -5.03834,0.0467 -5.49939,-0.26907 -1.17315,-0.80287 -0.82012,-4.83607 0.72315,-8.22396 0.71932,-1.57905 2.06797,-5.12239 2.99357,-7.87076 1.47009,-4.36524 2.33449,-8.12529 4.9444,-21.64467 1.40254,-7.26489 2.77677,-9.68709 5.49957,-9.68709 1.69318,0 2.26513,0.75689 3.75035,4.91085 1.44689,4.04688 3.06673,7.12772 4.91077,9.33389 l 1.34542,1.59774 1.42955,-1.32868 c 0.79063,-0.72926 1.79714,-2.17616 2.23678,-3.21214 0.4397,-1.03599 1.24784,-2.51968 1.79957,-3.29637 0.55173,-0.77669 1.97297,-3.91209 3.16175,-6.96259 2.50794,-6.43543 3.77348,-8.03895 6.27302,-8.03895 z m -0.47091,9.92259 c -0.52096,-0.0544 -0.94182,0.38269 -0.94182,1.22771 0,0.47465 -1.43295,3.44016 -3.1954,6.57582 -1.76245,3.13557 -4.30532,8.05229 -5.65083,10.93163 -1.3455,2.87934 -2.45543,5.57035 -2.45543,5.98712 0,0.41677 0.56041,0.90468 1.24455,1.07635 0.88326,0.22173 1.6857,1.28381 2.77497,3.68314 0.84366,1.8584 2.4024,4.89972 3.46447,6.74401 2.50795,4.35479 3.45198,4.39439 6.74401,0.3532 2.55929,-3.14194 2.63823,-3.29364 2.47225,-5.76862 -0.0816,-1.21513 0.62346,-2.27143 3.44765,-5.19666 1.94882,-2.01868 3.53169,-4.10416 3.53169,-4.62496 0,-0.52071 -1.06139,-2.78262 -2.37129,-5.02856 -1.30989,-2.24602 -3.48971,-6.3874 -4.84354,-9.19943 -1.35375,-2.81195 -2.82121,-5.55726 -3.24589,-6.10483 -0.31878,-0.41125 -0.66281,-0.62312 -0.97539,-0.65592 z m 78.25369,6.76075 c -0.20388,0 -1.62826,1.92766 -3.17858,4.27175 -1.5504,2.34418 -2.80506,4.58434 -2.77497,4.97816 0.21068,2.73903 2.78466,9.04799 3.68314,9.04799 0.30501,0 0.95337,-0.78705 1.44629,-1.74901 1.05188,-2.05294 1.67058,-2.52818 3.26272,-2.53948 1.47477,-0.0102 2.85902,-1.36531 2.85902,-2.79189 0,-1.22355 -4.71988,-11.21752 -5.29762,-11.21752 z m 14.09337,1.3455 c -0.0408,0.009 -0.085,0.0289 -0.1177,0.0671 -0.39187,0.45748 -3.4445,13.09564 -4.03634,16.70025 -0.1523,0.92737 -0.39307,2.25945 -0.53814,2.95991 -0.14499,0.70045 -0.13538,1.62459 0.0332,2.06856 0.72434,1.90293 5.2587,8.61082 5.81893,8.61082 0.33756,0 1.03598,-0.78714 1.54726,-1.7491 0.51119,-0.96196 1.56392,-2.802 2.33772,-4.10357 0.94624,-1.59171 1.38536,-3.10685 1.36225,-4.62487 -0.068,-4.48405 -5.13734,-20.07217 -6.40764,-19.92922 z m -29.1454,0.8072 c -0.43402,0 -2.40868,8.12512 -2.53947,10.46081 -0.0943,1.68366 -1.48769,9.55561 -2.38812,13.48793 -1.07006,4.67238 -1.03216,6.06412 0.1681,8.44255 1.42939,2.83234 2.81101,3.28464 3.61583,1.1604 1.44333,-3.80909 4.85646,-5.10114 7.33263,-2.77489 1.46329,1.37466 1.72735,1.20936 2.33772,-1.49678 0.62414,-2.76767 -0.32507,-6.825 -4.91085,-20.80373 -0.55871,-1.70321 -1.02588,-3.48725 -1.02588,-3.96904 0,-0.97606 -2.02701,-4.50725 -2.58996,-4.50725 z m -35.56986,0.0331 c -0.38286,0.028 -3.535,4.35555 -6.77766,9.30023 -1.32536,2.02123 -2.39322,3.95858 -2.35445,4.30541 0.18849,1.68103 3.76565,7.88767 4.54082,7.88767 1.29782,0 4.37772,-2.5558 5.73496,-4.75949 0.66408,-1.0784 2.00822,-2.76172 2.97674,-3.73363 2.59965,-2.60874 2.50479,-3.06019 -2.18636,-10.47754 -0.88922,-1.40593 -1.76186,-2.53506 -1.93405,-2.52265 z m -51.6814,1.04269 c -0.63204,0 -1.63905,3.4468 -1.64814,5.65083 -0.009,1.96038 -1.81259,9.66449 -3.21223,13.72344 -0.56134,1.62791 -1.36387,4.17079 -1.7995,5.65074 -0.43572,1.48004 -0.96884,3.11475 -1.17731,3.63274 -0.34131,0.84825 0.0314,0.94174 3.76727,0.94174 3.99937,0 4.20597,-0.0518 5.97037,-1.81633 1.87275,-1.87268 2.19265,-3.3273 1.34542,-6.25627 -0.26184,-0.90519 0.10469,-2.83107 1.12676,-5.88625 0.83549,-2.49749 1.50918,-5.2825 1.49686,-6.18896 -0.034,-2.46749 -4.37128,-9.45168 -5.8695,-9.45168 z m 69.12154,6.1554 c -1.02128,0.009 -2.2444,1.27853 -2.97672,3.17849 -0.36248,0.94063 -1.59393,2.54628 -2.74134,3.58226 l -2.08548,1.88364 3.93547,8.34167 c 2.91087,6.14927 4.20632,8.34166 4.91077,8.34166 0.88191,0 1.90633,-1.50255 3.49813,-5.11261 0.32634,-0.74006 1.20043,-2.15602 1.93412,-3.16183 2.12713,-2.91597 1.80451,-4.78694 -1.93412,-11.11664 -1.79933,-3.04642 -3.65688,-5.69154 -4.12031,-5.86942 -0.13564,-0.0518 -0.27459,-0.0688 -0.42052,-0.0671 z m 63.23531,9.45159 c -0.38278,0 -3.76396,5.38508 -4.22127,6.72718 -0.3034,0.89023 -3.87385,8.47969 -4.97808,10.57851 -2.1052,4.00107 -0.76386,5.41499 1.74902,1.8499 1.95307,-2.77073 4.07892,-3.57648 6.02086,-2.30398 0.79505,0.52088 2.17761,3.25251 4.06991,7.98846 1.58101,3.9568 3.06589,7.42339 3.29629,7.7194 0.23039,0.29601 0.83915,1.80962 1.34542,3.36359 0.50626,1.55398 1.08561,2.82538 1.29502,2.82538 0.80966,0 3.26263,-4.47437 3.26263,-5.95347 0,-0.85717 -0.81519,-3.9211 -1.81633,-6.81123 -1.00106,-2.89031 -2.35166,-6.83818 -3.01039,-8.76219 -4.14173,-12.09823 -6.23044,-17.22155 -7.01308,-17.22155 z m -74.82278,4.91085 c -0.69833,0.009 -1.76414,0.85573 -3.29636,2.58996 -2.43393,2.75475 -5.59475,8.05535 -4.89403,8.20714 0.22189,0.0476 1.25125,0.10869 2.28723,0.13453 1.71537,0.0433 2.02795,0.31207 3.49813,3.02722 1.26137,2.3293 4.16859,6.71511 7.08038,10.67938 0.35907,0.48893 1.82519,-1.27607 2.89269,-3.48129 1.39777,-2.88733 1.23478,-3.51351 -3.27954,-12.88249 -1.71146,-3.55201 -3.23415,-6.88195 -3.39725,-7.39994 -0.18578,-0.59031 -0.47235,-0.87867 -0.89125,-0.87451 z m -18.71834,0.45408 c -0.23575,0.0136 -0.42705,0.18782 -0.53821,0.5214 -0.12596,0.37785 -0.93417,1.48658 -1.79951,2.47225 l -1.56409,1.7995 1.49687,0.70632 c 0.82496,0.39536 1.93097,1.64457 2.45534,2.75815 0.8406,1.78522 1.07169,1.94508 2.035,1.42947 0.60085,-0.32159 1.37975,-1.18054 1.71536,-1.91721 0.51349,-1.127 0.37675,-1.80587 -0.84085,-4.28858 -1.07771,-2.19732 -2.25282,-3.52328 -2.95991,-3.4813 z m 65.95981,0.58862 c -0.045,-3.4e-4 -0.0731,0.0229 -0.10096,0.051 -0.31343,0.30672 -1.65086,4.56564 -4.67536,14.9848 -1.38944,4.78618 -1.33734,5.52021 0.62227,9.95616 2.75764,6.24242 4.09176,9.62929 5.60035,14.17742 0.91573,2.76079 1.91134,5.0063 2.20319,4.99499 0.29176,-0.011 0.64241,-0.8055 0.79037,-1.76593 0.23227,-1.50689 0.56304,-1.81871 2.42177,-2.30398 1.18463,-0.30927 2.48509,-0.77958 2.89268,-1.0427 0.95449,-0.61606 5.41279,-10.00493 5.54995,-11.68843 0.13241,-1.62545 -2.86761,-7.97699 -4.3558,-9.21626 -0.61853,-0.51511 -1.12684,-1.55279 -1.12684,-2.30407 0,-1.57981 -2.73341,-7.25469 -4.00269,-8.30801 -0.47362,-0.39306 -1.21734,-1.47851 -1.66488,-2.42177 -0.99272,-2.09203 -3.47892,-5.10692 -4.15405,-5.1127 z m -93.01981,3.1954 c -0.18298,0 -1.3676,1.51361 -2.64043,3.36359 -1.27285,1.84999 -2.97131,4.09014 -3.7672,4.97808 -3.46166,3.86229 -4.94698,6.62291 -5.70122,10.57851 -0.89091,4.67111 -0.90247,4.41904 0.53812,7.29889 2.12577,4.24932 4.10034,2.55282 6.77758,-5.78537 1.85517,-5.7778 2.44014,-6.4412 5.58352,-6.4412 1.4101,0 1.96412,0.27026 2.22002,1.07635 0.4545,1.43211 1.03531,1.35928 2.10222,-0.26906 1.83902,-2.80676 1.64151,-3.97456 -1.66496,-9.55256 -1.71069,-2.88597 -3.26475,-5.24723 -3.44765,-5.24723 z m 34.77941,10.41024 c -0.0637,-0.008 -0.14618,0.0238 -0.23541,0.11779 -0.7807,0.8174 -2.14294,4.43298 -1.79959,4.77632 0.59304,0.59295 1.04219,0.3074 1.66496,-1.05961 0.65381,-1.43491 0.8186,-3.77289 0.37004,-3.8345 z m 30.79355,0.47091 c -0.77755,-0.0646 -1.56529,1.02468 -3.73354,4.69227 -1.76339,2.98268 -1.83614,3.63741 -0.42042,4.08674 0.61436,0.19496 1.77689,1.70423 2.674,3.48129 1.75047,3.46779 2.49095,4.18575 3.38042,3.29629 0.7783,-0.77831 2.52859,-6.4265 2.52265,-8.13983 -0.008,-1.62868 -2.56787,-6.41299 -3.86806,-7.21492 -0.19497,-0.12017 -0.37556,-0.1868 -0.55505,-0.20184 z m -42.59969,0.43734 c -0.32279,0.008 -1.52925,1.57522 -2.6741,3.49812 -1.14476,1.92282 -2.29063,3.63657 -2.5563,3.80076 -0.26567,0.16428 -0.85751,1.19755 -1.31185,2.28724 -0.45416,1.08978 -1.77852,3.4411 -2.94309,5.23041 -2.56081,3.93503 -3.24647,6.51726 -1.86681,7.04673 0.57944,0.22232 1.11835,0.0416 1.3959,-0.45409 1.30837,-2.33789 2.44652,-3.15716 4.47361,-3.22905 2.53421,-0.0898 3.93299,1.32043 4.43993,4.49042 0.40217,2.515 0.84103,2.90467 1.93404,1.66497 1.66243,-1.88576 5.78528,-10.23041 5.78528,-11.70526 0,-1.72327 -5.77381,-12.64487 -6.67661,-12.63025 z m 56.07087,3.4813 c -0.81859,0 -2.86905,4.12787 -3.34685,6.72718 -0.19045,1.03598 -0.94471,3.69988 -1.66488,5.91989 -0.72018,2.21993 -1.79007,6.54413 -2.3882,9.60296 -0.59805,3.05883 -1.45709,6.07729 -1.90038,6.71035 -1.07882,1.54021 -1.46287,0.35482 2.97673,8.96394 2.2529,4.36864 3.78725,5.93672 5.81902,5.93672 1.79678,0 2.52001,-0.68779 3.07769,-2.90951 0.21553,-0.8587 1.52763,-2.73724 2.90951,-4.17079 2.09084,-2.16927 2.84339,-2.60678 4.45669,-2.60678 2.35506,0 3.63818,0.45569 3.64948,1.27819 0.008,0.33825 0.24672,0.96868 0.53822,1.41264 0.47108,0.71754 0.58845,0.71754 1.05953,0 0.95779,-1.45904 0.57595,-2.558 -1.05953,-3.12809 -0.98414,-0.343 -1.69981,-1.04822 -1.86681,-1.81633 -1.94381,-8.93725 -4.59173,-16.71096 -8.86306,-26.00048 -1.49703,-3.25591 -3.02602,-5.91989 -3.39716,-5.91989 z m -38.46255,2.57313 c -0.69008,-0.0894 -1.24454,0.31589 -1.24454,1.17723 0,0.44703 -2.03568,4.89972 -4.524,9.90576 -2.4884,5.00604 -5.06425,10.56788 -5.71813,12.3611 -0.65379,1.7933 -1.62851,3.68288 -2.18627,4.1877 -1.15199,1.04253 -1.29044,3.14756 -0.31956,4.89403 l 0.65594,1.17723 2.27032,-1.53044 c 1.2493,-0.83898 3.1892,-1.69173 4.3054,-1.90038 2.63705,-0.49283 3.36359,-1.14816 3.36359,-3.01038 0,-0.8378 0.96868,-3.36912 2.15271,-5.61726 1.18395,-2.24806 2.1527,-4.40306 2.1527,-4.79307 0,-0.39 0.52089,-1.37321 1.16041,-2.18627 1.02723,-1.3059 1.43516,-1.44349 3.49812,-1.21089 1.44749,0.16318 2.33773,0.0493 2.33773,-0.3028 0,-0.87171 -4.94196,-10.45222 -6.22271,-12.05838 -0.52308,-0.6561 -1.14502,-1.02366 -1.68171,-1.09318 z m 76.74008,1.59766 c -0.0272,-0.008 -0.0459,-0.008 -0.0671,0 -0.33553,0.11184 -1.37678,2.36559 -2.32081,5.01173 -0.94411,2.64614 -2.96449,7.86651 -4.4736,11.60438 -3.8764,9.60142 -3.91668,10.19174 -1.05952,14.32887 1.27692,1.84897 2.57746,3.3636 2.89268,3.3636 0.62057,0 2.38812,-3.34541 2.38812,-4.52408 0,-1.16151 1.54675,-2.11685 3.93538,-2.4386 2.41786,-0.32559 2.28698,-0.15816 5.17992,-6.65988 l 1.63139,-3.66631 -1.53052,-3.06078 c -0.84519,-1.68163 -1.71978,-3.87122 -1.93403,-4.86037 -0.56881,-2.62685 -3.80756,-8.91831 -4.6417,-9.09856 z m -116.90124,7.01316 c -0.33961,0.11312 -1.22134,1.19151 -1.96769,2.38803 -0.74627,1.19661 -2.00424,3.10608 -2.7918,4.25501 -0.78749,1.14885 -1.54692,3.05408 -1.69863,4.23811 -0.26006,2.02973 0.6567,6.11392 1.6818,7.46715 0.25589,0.33766 0.78485,1.45302 1.17723,2.489 1.55134,4.09498 4.84261,10.76344 5.31445,10.76344 0.27477,0 0.80653,-1.26315 1.17732,-2.80854 0.37072,-1.5454 1.19389,-4.02768 1.83316,-5.5163 0.63926,-1.48854 1.62068,-4.06804 2.16944,-5.73488 l 0.9923,-3.02722 -3.63266,-7.36628 c -2.0344,-4.12277 -3.90903,-7.26285 -4.25492,-7.14752 z m 137.36859,3.61575 c -0.36204,0 -3.62144,4.7911 -7.0299,10.34301 -0.77899,1.26893 -1.96429,3.80416 -2.62361,5.634 -0.6844,1.89962 -1.85296,3.91762 -2.74124,4.70901 -1.81794,1.61984 -1.82185,1.61287 -0.48774,4.13722 1.60633,3.03963 3.24087,3.45028 13.3534,3.36359 4.82663,-0.0416 8.92536,-0.23056 9.1153,-0.42051 0.70173,-0.70165 -0.98193,-7.74532 -3.11126,-12.96654 -1.20715,-2.95991 -2.57501,-6.47154 -3.02722,-7.80354 -1.08205,-3.18648 -2.95396,-6.99624 -3.44773,-6.99624 z m -77.36234,1.19405 c -0.24926,-0.0229 -0.43878,0.0888 -0.5213,0.33638 -0.10955,0.32873 -0.72477,1.38281 -1.37908,2.35455 -0.65439,0.97173 -1.69607,2.97673 -2.32089,4.45677 -1.57437,3.72878 -1.97967,7.63721 -1.00904,9.82162 0.42739,0.96196 0.99519,1.74902 1.26128,1.74902 0.26609,0 1.54004,-1.36097 2.84228,-3.02722 1.30217,-1.66615 3.01617,-3.71084 3.80085,-4.54082 0.81341,-0.8604 1.58568,-2.45143 1.7995,-3.71671 0.32057,-1.89757 0.167,-2.52987 -1.11,-4.37263 -1.23987,-1.78914 -2.61563,-2.99331 -3.3636,-3.06096 z m -74.58737,5.26406 c -0.34164,0 -1.26715,1.2714 -2.05173,2.82537 -1.6111,3.19065 -6.32146,15.29339 -7.70266,19.77786 -0.50142,1.628 -1.25695,3.99564 -1.66496,5.26406 -0.40811,1.26834 -0.73998,2.90296 -0.73998,3.63266 0,1.3212 0.0229,1.32859 5.48264,1.32859 4.11954,0 5.6832,0.21417 6.35714,0.82411 0.79913,0.72315 1.101,0.6957 2.74133,-0.13453 1.05416,-0.53371 3.49694,-1.00768 5.73487,-1.12683 3.88669,-0.20712 3.90174,-0.21409 3.90174,-1.74911 0,-2.23693 -3.52712,-12.3679 -6.25619,-17.96145 -1.29325,-2.65055 -2.35455,-5.11873 -2.35455,-5.48264 0,-1.27896 -2.83345,-7.19809 -3.44765,-7.19809 z m 30.74315,3.63266 c -0.40606,0.0136 -0.86262,0.80686 -2.1023,2.92633 -1.09234,1.86758 -2.35405,4.77717 -2.79172,6.45803 -0.43777,1.68095 -1.02825,3.49728 -1.31186,4.03635 -0.71074,1.35094 -1.32127,6.29723 -0.84085,6.77758 0.21578,0.21586 1.6229,0.38685 3.14492,0.38685 4.29818,0 4.89895,0.72332 4.70901,5.66766 -0.10692,2.78552 0.0212,4.00329 0.40368,3.76719 1.01236,-0.62567 2.13197,-3.32653 2.01817,-4.87728 -0.089,-1.2108 0.1551,-1.58576 1.22763,-1.8499 1.42523,-0.35091 2.67792,-2.25146 2.69084,-4.08674 0.009,-0.61046 -0.46402,-2.06347 -1.02587,-3.22906 -1.25797,-2.6101 -4.35581,-12.01282 -4.35581,-13.21886 0,-0.48519 -0.42161,-1.40942 -0.94182,-2.05183 -0.35413,-0.43742 -0.58045,-0.71482 -0.82402,-0.70632 z m 28.70815,1.7491 c -0.87782,0 -1.67441,1.98622 -2.4386,6.08809 -0.39732,2.13256 -1.18556,5.07895 -1.76593,6.55891 -0.96077,2.45015 -0.98669,2.85936 -0.26907,4.57447 0.90953,2.17362 4.20326,6.83784 5.78536,8.19031 2.2654,1.93676 4.05342,0.72918 5.38177,-3.64948 1.06037,-3.49558 1.02383,-4.72814 -0.21868,-7.11396 -0.57008,-1.09454 -1.35273,-3.09112 -1.73228,-4.42312 -0.99706,-3.49922 -4.11792,-10.22522 -4.74257,-10.22522 z m 19.79469,9.68709 c -0.98159,-0.16581 -2.07537,1.72565 -4.10357,6.3235 -1.53426,3.47798 -3.00257,7.65549 -3.26271,9.28348 -0.26015,1.628 -0.64955,3.36003 -0.85777,3.85133 -0.26771,0.63162 -0.0501,1.00514 0.75689,1.26137 1.50256,0.47686 2.49341,-0.40734 4.17079,-3.73362 0.7557,-1.49857 1.6365,-2.89379 1.96769,-3.11127 1.06981,-0.70258 4.90703,-0.4421 6.13857,0.42043 0.6583,0.46122 1.43678,0.68712 1.73219,0.50448 1.00063,-0.61836 0.54527,-2.36832 -1.74902,-6.7271 -1.25797,-2.3899 -2.70869,-5.18238 -3.22906,-6.20587 -0.57102,-1.1231 -1.04992,-1.77987 -1.564,-1.86673 z m 37.10029,0.48774 c -0.9572,-0.0928 -1.8408,2.37086 -3.44772,8.39206 -1.6371,6.13415 -2.07716,8.97219 -1.49678,9.55264 0.22138,0.22139 1.54411,0.4036 2.94307,0.4036 2.62625,0 3.19541,0.49454 3.19541,2.74132 0,2.36789 1.56596,0.77635 3.09452,-3.14492 3.23203,-8.29135 3.19948,-7.7686 0.67275,-10.96528 -1.22355,-1.54777 -2.70282,-3.72988 -3.27954,-4.86046 -0.66603,-1.30564 -1.18037,-2.07044 -1.68171,-2.11896 z m -14.09346,5.97029 c -0.15076,0 -0.51621,0.90817 -0.8072,2.01817 -0.29108,1.11001 -0.63833,2.62362 -0.77363,3.36359 -0.30255,1.65384 0.50975,6.67721 1.32859,8.20714 0.52607,0.98295 0.76581,0.51961 1.86681,-3.66631 0.69375,-2.63781 1.26129,-5.29432 1.26129,-5.88625 0,-0.96366 -2.18738,-4.03634 -2.87586,-4.03634 z m -55.07865,0.10096 c -0.81426,-0.17456 -2.0599,1.74843 -4.43986,6.6094 -1.47358,3.00979 -2.69093,5.62049 -2.69093,5.80219 0,1.22185 6.99607,1.97661 12.29396,1.32859 2.91521,-0.35652 3.20969,-0.67114 2.21993,-2.25359 -0.43615,-0.69731 -2.05395,-3.28378 -3.59901,-5.7517 -1.54497,-2.46792 -3.01761,-4.83887 -3.27954,-5.2808 -0.14957,-0.25241 -0.31657,-0.41389 -0.50456,-0.45409 z m 85.56947,0.43726 c -0.88539,0 -5.96757,12.1364 -6.81123,16.26282 -1.34636,6.58585 -1.31925,6.6592 3.4309,6.12174 2.06874,-0.23405 3.83135,-0.11192 5.23031,0.37003 1.62418,0.55955 2.99475,0.59856 5.98721,0.18502 3.48198,-0.48128 3.86807,-0.64709 3.86807,-1.71545 0,-0.65448 -1.90811,-5.03697 -4.25484,-9.73757 -3.92884,-7.86957 -6.27302,-11.48659 -7.45042,-11.48659 z m -39.72382,10.07386 c -0.72647,0.009 -1.56588,1.30378 -3.19541,4.37263 -1.037,1.95291 -1.87539,3.79796 -1.86681,4.10357 0.009,0.3057 0.83788,2.28665 1.84999,4.38955 l 1.84998,3.81759 2.85903,0.33637 c 6.42089,0.77117 6.28465,1.09752 2.9095,-6.69344 -0.46292,-1.06862 -1.09904,-3.14543 -1.41272,-4.60813 -0.31369,-1.4627 -1.0563,-3.44994 -1.64814,-4.42312 -0.50576,-0.83167 -0.90953,-1.29765 -1.34542,-1.29502 z m -13.2357,8.13991 c -0.53227,-0.0179 -1.03131,0.62525 -1.74902,1.84998 -0.76267,1.3014 -1.39598,2.69977 -1.39598,3.09453 0,0.39468 -0.57723,2.18661 -1.29494,3.98578 -1.73355,4.34611 -2.12713,6.04125 -1.47995,6.44128 0.29481,0.18221 2.04094,0.49683 3.88489,0.6895 2.26727,0.23694 3.63037,0.65813 4.20453,1.32867 0.85718,1.00114 3.09266,1.43721 2.50583,0.48766 -0.17414,-0.28173 -0.38635,-3.00623 -0.47091,-6.05443 -0.13122,-4.73442 -0.34862,-5.94684 -1.54718,-8.27436 -1.24072,-2.40928 -1.97287,-3.52592 -2.65727,-3.54861 z"
       style="fill:#000000" />
  </g>
</svg>
